<?xml version="1.0" encoding="UTF-8"?>
<svg version="1.1" xmlns="http://www.w3.org/2000/svg" width="1142" height="875">
<path d="M0 0 C376.86 0 753.72 0 1142 0 C1142 288.75 1142 577.5 1142 875 C765.14 875 388.28 875 0 875 C0 586.25 0 297.5 0 0 Z " fill="#FDFDFC" transform="translate(0,0)"/>
<path d="M0 0 C0.42764029 28.95679108 -4.68295885 57.84404514 -11 86 C-11.19706543 86.89912109 -11.39413086 87.79824219 -11.59716797 88.72460938 C-15.37789469 105.91259265 -20.27777155 122.72203248 -27 139 C-27.3916333 139.95704834 -27.7832666 140.91409668 -28.18676758 141.90014648 C-40.6578698 172.22996387 -55.4574879 200.56749966 -75 227 C-75.98475989 228.35518915 -76.96913162 229.71066044 -77.953125 231.06640625 C-84.83139414 240.46625652 -92.20289564 249.35042035 -100 258 C-101.15568481 259.28813599 -101.15568481 259.28813599 -102.3347168 260.60229492 C-109.26892755 268.25720868 -116.46544643 275.620311 -123.78051758 282.91088867 C-125.69925505 284.82422194 -127.61252754 286.74290504 -129.52539062 288.66210938 C-135.51227167 294.65262441 -141.4985077 300.56220033 -148 306 C-149.11808589 306.96119554 -150.23528955 307.92341836 -151.3515625 308.88671875 C-153.03582245 310.32928207 -154.72161501 311.7700369 -156.40771484 313.21044922 C-159.57499343 315.9177043 -162.73339256 318.63406327 -165.875 321.37109375 C-166.81738525 322.18864136 -166.81738525 322.18864136 -167.77880859 323.02270508 C-168.98253523 324.06740991 -170.18352381 325.11528049 -171.38134766 326.16674805 C-174.13865359 328.55329989 -176.70478102 330.45655737 -180 332 C-174.31697277 325.09028224 -167.95992516 318.89134977 -161.59790039 312.6184082 C-155.83461088 306.92859798 -150.25589805 301.16524761 -145 295 C-143.54554483 293.39231627 -142.08779105 291.78760285 -140.625 290.1875 C-136.37373185 285.4646626 -132.29405041 280.63271393 -128.33105469 275.66552734 C-127.3902342 274.48829378 -126.44515122 273.31446072 -125.49707031 272.14306641 C-110.55848334 253.64831852 -97.39260597 233.86571536 -86 213 C-85.52111328 212.12585449 -85.04222656 211.25170898 -84.54882812 210.35107422 C-61.65943255 168.27060219 -45.44273824 121.60192366 -39 74 C-38.86400391 73.00822754 -38.72800781 72.01645508 -38.58789062 70.99462891 C-36.45881132 54.96905896 -35.41082648 38.91843876 -34.64599609 22.78051758 C-34.6092981 22.0275238 -34.5726001 21.27453003 -34.53479004 20.49871826 C-34.43577339 18.44277149 -34.34245579 16.38655251 -34.24951172 14.33032227 C-34.05385931 11.7188795 -33.76319768 9.48846549 -33 7 C-31.76765625 6.91363281 -30.5353125 6.82726562 -29.265625 6.73828125 C-20.17127778 6.00072776 -12.43363117 5.04212677 -4.15234375 1.0234375 C-2 0 -2 0 0 0 Z " fill="#036C50" transform="translate(759,197)"/>
<path d="M0 0 C2.91775624 0.96353109 5.81638411 1.92917291 8.68359375 3.03515625 C16.87289415 6.09017186 24.33148158 6.76315523 33 7 C34.14901914 10.74646644 34.2533669 14.41561154 34.4296875 18.31640625 C34.50126275 19.80413937 34.57330374 21.29185015 34.64575195 22.77954102 C34.68270172 23.55935333 34.71965149 24.33916565 34.75772095 25.14260864 C39.45665479 122.09862199 73.10828183 212.37741566 149 299 C149.79277344 299.88558594 150.58554687 300.77117187 151.40234375 301.68359375 C159.60947902 310.77932111 168.28916217 319.38889873 177 328 C173.56972892 328 173.24708171 327.65893665 170.8125 325.47265625 C169.89597656 324.66175537 169.89597656 324.66175537 168.9609375 323.83447266 C168.31382812 323.24972168 167.66671875 322.6649707 167 322.0625 C165.64699575 320.86196992 164.29282089 319.66275788 162.9375 318.46484375 C162.26976562 317.87300293 161.60203125 317.28116211 160.9140625 316.67138672 C158.33088294 314.41571742 155.67613706 312.26962651 153 310.125 C149.35849277 307.17736933 145.99669081 304.12744388 142.75219727 300.75146484 C141.13656396 299.13650688 139.47581506 297.67797269 137.7265625 296.2109375 C131.56466448 290.85258095 125.84439672 285.03040434 120.07348633 279.25878906 C118.07588048 277.26336586 116.07040647 275.27608944 114.06445312 273.2890625 C106.9065473 266.16218991 100.24815898 258.94587133 94 251 C93.07745899 249.90946307 92.14779495 248.82485645 91.20703125 247.75 C78.28825892 232.91343276 67.12204234 216.8498669 57 200 C56.50790039 199.18337891 56.01580078 198.36675781 55.50878906 197.52539062 C43.74913927 177.86221564 33.77035713 157.39658932 26.03417969 135.82373047 C25.24484972 133.66853914 24.42787948 131.52345064 23.59863281 129.38330078 C19.98418633 120.04816483 17.01250156 110.68775235 14.5 101 C14.3102359 100.27389526 14.1204718 99.54779053 13.92495728 98.79968262 C8.09306873 76.36406075 4.07802215 53.85704492 1.625 30.8125 C1.53914642 30.01275757 1.45329285 29.21301514 1.36483765 28.38903809 C0.36504198 18.89741574 -0.24623786 9.55802789 0 0 Z " fill="#036C50" transform="translate(383,197)"/>
<path d="M0 0 C5.79826198 -0.12445087 11.59573097 -0.21473829 17.39501953 -0.2746582 C19.36390747 -0.29966047 21.33270393 -0.333674 23.30126953 -0.37719727 C44.81437365 -0.84060676 44.81437365 -0.84060676 52 5 C56.0228479 8.95236947 59.11806741 12.26022206 59.3125 18.0625 C59.1949136 25.38813273 56.466283 30.81553047 51.3125 35.9375 C50.71050781 36.48277344 50.10851562 37.02804687 49.48828125 37.58984375 C47.88228862 38.95069389 47.88228862 38.95069389 47 41 C47.86625 41.2475 48.7325 41.495 49.625 41.75 C57.23126404 44.56713483 63.2412265 49.90015461 67.109375 57.05078125 C69.92374951 63.88758725 69.49919651 69.94282458 66.9609375 76.80078125 C63.59372375 84.50704687 58.57034543 88.42606618 51 92 C36.62529342 97.53280603 17.05080029 93.67170337 2 93 C5 91 5 91 8 90 C9.86662664 85.07976438 10.25239775 80.62860198 10.25878906 75.39990234 C10.2622937 74.67539383 10.26579834 73.95088531 10.26940918 73.204422 C10.27814618 70.83149373 10.27240727 68.45886831 10.265625 66.0859375 C10.26697367 64.4264012 10.26891588 62.76686528 10.27142334 61.10733032 C10.27436346 57.63922339 10.27011175 54.17121986 10.26074219 50.703125 C10.24933043 46.26344289 10.25592501 41.82400217 10.26788712 37.38432884 C10.27512058 33.96135647 10.27281126 30.53844118 10.26763153 27.11546707 C10.26630007 25.47844031 10.26792506 23.84140832 10.27259064 22.20438766 C10.27768234 19.91655524 10.26990956 17.6291121 10.25878906 15.34130859 C10.25719788 14.04115814 10.25560669 12.74100769 10.25396729 11.40145874 C10.01130145 8.15136364 9.40512835 5.9152556 8 3 C5.36 2.67 2.72 2.34 0 2 C0 1.34 0 0.68 0 0 Z " fill="#046C51" transform="translate(304,552)"/>
<path d="M0 0 C10.23 0 20.46 0 31 0 C31 0.66 31 1.32 31 2 C29.865625 2.28875 28.73125 2.5775 27.5625 2.875 C26.386875 3.24625 25.21125 3.6175 24 4 C22.50012078 6.99975843 22.76088992 10.11924236 22.68359375 13.4140625 C22.66494263 14.06076904 22.6462915 14.70747559 22.6270752 15.3737793 C22.55875147 17.79071324 22.49861933 20.20787314 22.4375 22.625 C22.293125 28.02875 22.14875 33.4325 22 39 C40.15 39 58.3 39 77 39 C76.87625 33.616875 76.7525 28.23375 76.625 22.6875 C76.59100098 20.99197998 76.55700195 19.29645996 76.52197266 17.54956055 C76.4867623 16.20359319 76.45084055 14.85764418 76.4140625 13.51171875 C76.40270264 12.81453735 76.39134277 12.11735596 76.37963867 11.39904785 C76.2700593 7.74134126 76.08374375 6.12561563 74 3 C71.67182036 2.63239269 69.3381615 2.29758419 67 2 C66.505 1.01 66.505 1.01 66 0 C76.56 0 87.12 0 98 0 C98 0.66 98 1.32 98 2 C96.865625 2.309375 95.73125 2.61875 94.5625 2.9375 C91.21224901 3.62924531 91.21224901 3.62924531 90 5 C89.89967162 7.43270401 89.86381821 9.83703077 89.87060547 12.27026367 C89.86885315 13.03130402 89.86710083 13.79234436 89.86529541 14.57644653 C89.86087388 17.10697676 89.86381738 19.63743774 89.8671875 22.16796875 C89.8665142 23.92336541 89.86554395 25.67876198 89.86428833 27.43415833 C89.86281067 31.12221154 89.8649668 34.8102406 89.86962891 38.49829102 C89.87530533 43.2182341 89.87206092 47.93812007 89.86605644 52.65806103 C89.86243478 56.28781053 89.86359716 59.91754661 89.86618423 63.54729652 C89.86685015 65.28676676 89.86603681 67.02623822 89.86370468 68.76570702 C89.86115418 71.20475845 89.86505341 73.64371897 89.87060547 76.08276367 C89.86756912 77.15611214 89.86756912 77.15611214 89.86447144 78.25114441 C89.88134794 82.27016428 90.22561799 86.05629182 91 90 C94.3 90.33 97.6 90.66 101 91 C101 91.66 101 92.32 101 93 C90.11 93 79.22 93 68 93 C68.33 92.34 68.66 91.68 69 91 C69.804375 90.896875 70.60875 90.79375 71.4375 90.6875 C74.14429693 90.28498153 74.14429693 90.28498153 75.13427734 88.03442383 C76.30863285 83.91821836 76.35628798 80.02412625 76.4140625 75.76171875 C76.43170654 74.98042603 76.44935059 74.1991333 76.4675293 73.39416504 C76.53031366 70.49214781 76.5766952 67.58979436 76.625 64.6875 C76.74875 58.190625 76.8725 51.69375 77 45 C58.85 45 40.7 45 22 45 C22.12375 51.331875 22.2475 57.66375 22.375 64.1875 C22.40899902 66.1780542 22.44299805 68.1686084 22.47802734 70.21948242 C22.51325041 71.80649462 22.54917355 73.3934915 22.5859375 74.98046875 C22.60297729 76.20521912 22.60297729 76.20521912 22.62036133 77.45471191 C22.69325591 84.26183087 22.69325591 84.26183087 26 90 C27.34747084 90.23075082 28.70377565 90.41153063 30.0625 90.5625 C31.361875 90.706875 32.66125 90.85125 34 91 C34 91.66 34 92.32 34 93 C23.11 93 12.22 93 1 93 C2 91 2 91 5.0625 89.875 C6.031875 89.58625 7.00125 89.2975 8 89 C9.04147485 84.72892696 9.14802368 80.58244 9.14526367 76.2121582 C9.14862228 75.44410858 9.1519809 74.67605896 9.15544128 73.88473511 C9.16490845 71.35673387 9.16689177 68.82879908 9.16796875 66.30078125 C9.17118252 64.54151889 9.17454669 62.78225679 9.17805481 61.022995 C9.1840342 57.34206522 9.18589576 53.6611589 9.18530273 49.98022461 C9.18520078 45.25547646 9.19889288 40.53087745 9.21607494 35.80616474 C9.22716769 32.17658287 9.22922284 28.5470375 9.22869301 24.91744041 C9.22987571 23.17465891 9.23431365 21.43187655 9.24202538 19.68911171 C9.25177733 17.25918556 9.24896724 14.82958919 9.24291992 12.3996582 C9.24853943 11.67599564 9.25415894 10.95233307 9.25994873 10.20674133 C9.3515476 6.15404931 9.3515476 6.15404931 7 3 C4.67724823 2.59952556 2.34260643 2.2602896 0 2 C0 1.34 0 0.68 0 0 Z " fill="#046C51" transform="translate(743,552)"/>
<path d="M0 0 C10.56 0 21.12 0 32 0 C32 0.66 32 1.32 32 2 C30.865625 2.309375 29.73125 2.61875 28.5625 2.9375 C25.21224901 3.62924531 25.21224901 3.62924531 24 5 C23.91144839 7.6662603 23.88475327 10.30647114 23.90234375 12.97265625 C23.90446617 14.16912025 23.90446617 14.16912025 23.90663147 15.38975525 C23.91224684 17.94737435 23.92480188 20.50490718 23.9375 23.0625 C23.94251302 24.79231645 23.94707627 26.52213426 23.95117188 28.25195312 C23.96222125 32.50133553 23.97949614 36.75065312 24 41 C28.99499135 36.08089718 33.97832284 31.15020904 38.95361328 26.21118164 C40.64852115 24.53138656 42.34610816 22.85429033 44.04638672 21.17993164 C46.48589374 18.77669718 48.91569031 16.3640113 51.34375 13.94921875 C52.10933228 13.19912033 52.87491455 12.44902191 53.66369629 11.67619324 C54.36442261 10.97569351 55.06514893 10.27519379 55.78710938 9.5534668 C56.40888062 8.93835739 57.03065186 8.32324799 57.67126465 7.6894989 C59.30909368 5.96521887 59.30909368 5.96521887 59 3 C58.34 2.67 57.68 2.34 57 2 C57 1.34 57 0.68 57 0 C65.58 0 74.16 0 83 0 C83 0.66 83 1.32 83 2 C82.00033203 2.16822266 82.00033203 2.16822266 80.98046875 2.33984375 C67.15848915 5.29755407 58.43267918 16.36645297 48.90039062 26.08398438 C44.59478017 30.46833417 40.23237944 34.65562535 35.52026367 38.60302734 C33.87947367 39.94438256 33.87947367 39.94438256 33 42 C33.58607529 42.25977631 34.17215057 42.51955261 34.77598572 42.78720093 C37.15703715 44.08563547 38.69168263 45.46950926 40.58422852 47.40478516 C41.26916885 48.09955963 41.95410919 48.79433411 42.6598053 49.51016235 C43.39210861 50.2621994 44.12441193 51.01423645 44.87890625 51.7890625 C46.45624874 53.38684855 48.03372717 54.98450041 49.61132812 56.58203125 C52.07993905 59.09388256 54.54601558 61.60815204 57.0090332 64.12548828 C73.68989881 82.36275023 73.68989881 82.36275023 96 91 C96 91.99 96 92.98 96 94 C79.26713798 94.48736491 68.8814984 93.10218684 56.15917969 81.29101562 C49.68854157 75.08309515 43.39826256 68.69534781 37.6171875 61.8359375 C34.90838447 58.76072633 31.9529686 55.93330514 29.015625 53.078125 C27.14332405 51.1477682 25.58920861 49.16299537 24 47 C23.97522943 52.17781223 23.95710653 57.35558975 23.94506836 62.53344727 C23.9400483 64.29387005 23.9332309 66.05428868 23.92456055 67.81469727 C23.91239297 70.34913154 23.90674834 72.88351054 23.90234375 75.41796875 C23.89718246 76.20149216 23.89202118 76.98501556 23.88670349 77.7922821 C23.88630934 81.65591139 24.0555724 85.245165 25 89 C29.455 89.99 29.455 89.99 34 91 C34 91.66 34 92.32 34 93 C23.44 93 12.88 93 2 93 C2.495 92.01 2.495 92.01 3 91 C3.99 90.71125 4.98 90.4225 6 90.125 C6.99 89.75375 7.98 89.3825 9 89 C10.56482637 85.3388928 10.15513443 81.15390931 10.16113281 77.23388672 C10.16609772 76.45622955 10.17106262 75.67857239 10.17617798 74.87734985 C10.19075442 72.31145336 10.19759171 69.74561855 10.203125 67.1796875 C10.20887728 65.39657591 10.214635 63.61346434 10.22039795 61.83035278 C10.23089303 58.09637158 10.23674642 54.36241184 10.24023438 50.62841797 C10.24573609 45.83519799 10.26980587 41.04225966 10.29820633 36.24912834 C10.31678654 32.56893061 10.32203568 28.88880163 10.32357025 25.20856094 C10.32660446 23.44064915 10.33465868 21.67273878 10.34775543 19.90487289 C10.36473046 17.43880113 10.36295777 14.97342999 10.35644531 12.50732422 C10.37026749 11.40544769 10.37026749 11.40544769 10.3843689 10.28131104 C10.40098072 8.0417903 10.40098072 8.0417903 10 5 C6.71536341 2.81024227 3.79303725 2.00193437 0 1 C0 0.67 0 0.34 0 0 Z " fill="#096F54" transform="translate(946,552)"/>
<path d="M0 0 C10.23 0 20.46 0 31 0 C31 0.66 31 1.32 31 2 C28.69 2.33 26.38 2.66 24 3 C22.97007277 7.29930476 22.78600297 11.52668984 22.68359375 15.92578125 C22.66281265 16.67337204 22.64203156 17.42096283 22.62062073 18.19120789 C22.55555811 20.56488396 22.4964429 22.93866487 22.4375 25.3125 C22.39427354 26.92774495 22.35065796 28.54297953 22.30664062 30.15820312 C22.19992149 34.10536299 22.09853381 38.05262767 22 42 C29.03165517 36.12577975 35.53430201 29.71831658 42.02929688 23.26586914 C43.26609061 22.0406908 44.5073625 20.82001759 45.75292969 19.60375977 C47.5717367 17.82758849 49.37695556 16.03856128 51.1796875 14.24609375 C51.73486053 13.7084288 52.29003357 13.17076385 52.86203003 12.61680603 C56.1574812 9.30261934 57.89137979 6.54721466 59 2 C58.34 2 57.68 2 57 2 C57 1.34 57 0.68 57 0 C65.25 0 73.5 0 82 0 C82 0.66 82 1.32 82 2 C80.865625 2.20625 79.73125 2.4125 78.5625 2.625 C69.30212851 5.01320107 63.07269543 11.68291134 56.6171875 18.34375 C54.49675775 20.49582796 52.3650818 22.48842661 50.0625 24.4375 C44.38233574 29.27571924 39.2325417 34.68897018 34 40 C35.31741271 42.91139087 36.73754847 44.98958608 38.98999023 47.2487793 C39.59499863 47.86009201 40.20000702 48.47140472 40.823349 49.10124207 C41.80604515 50.07786552 41.80604515 50.07786552 42.80859375 51.07421875 C43.48994888 51.75748734 44.17130402 52.44075592 44.87330627 53.14472961 C46.31924654 54.59203056 47.76771434 56.0368101 49.21850586 57.47924805 C51.40510503 59.65526185 53.58098773 61.84156933 55.75585938 64.02929688 C72.02539882 81.33886433 72.02539882 81.33886433 93.1796875 90.5078125 C93.78039062 90.67023438 94.38109375 90.83265625 95 91 C95.33 91.66 95.66 92.32 96 93 C92.22999941 93.20644485 88.46147967 93.32865656 84.6875 93.4375 C83.1087207 93.52547852 83.1087207 93.52547852 81.49804688 93.61523438 C70.27211884 93.85702359 63.85976393 88.85782596 56.00773621 81.39002991 C53.03908554 78.49548435 50.14527641 75.53009839 47.25 72.5625 C46.05947754 71.36045217 44.86807535 70.15927497 43.67578125 68.95898438 C38.40650016 63.63388696 33.2006159 58.28813834 28.35839844 52.56616211 C26.99930479 50.94653878 26.99930479 50.94653878 25.32128906 49.41625977 C24 48 24 48 24 46 C23.34 46 22.68 46 22 46 C22.09416456 50.83837397 22.20039156 55.67628421 22.31738281 60.51416016 C22.35546062 62.15699175 22.39034888 63.79990071 22.421875 65.44287109 C22.46799015 67.8163604 22.52590261 70.1893267 22.5859375 72.5625 C22.59748871 73.28679199 22.60903992 74.01108398 22.62094116 74.75732422 C22.71138134 82.96594003 22.71138134 82.96594003 26 90 C27.155 90.144375 28.31 90.28875 29.5 90.4375 C31.2325 90.7159375 31.2325 90.7159375 33 91 C33.33 91.66 33.66 92.32 34 93 C23.44 93 12.88 93 2 93 C2 92.34 2 91.68 2 91 C5.465 90.505 5.465 90.505 9 90 C9.90096437 85.37886763 10.15367113 80.89929256 10.16113281 76.20629883 C10.16609772 75.44946304 10.17106262 74.69262726 10.17617798 73.91285706 C10.19069799 71.42757235 10.19758127 68.94235127 10.203125 66.45703125 C10.20888082 64.72401428 10.2146385 62.99099731 10.22039795 61.25798035 C10.23087614 57.63430486 10.23674092 54.01065138 10.24023438 50.38696289 C10.24574034 45.73962572 10.26982612 41.0925784 10.29820633 36.44533253 C10.31679972 32.87061193 10.32203634 29.29596201 10.32357025 25.72119713 C10.32660017 24.007142 10.33464011 22.29308821 10.34775543 20.57908058 C10.36476197 18.18766456 10.36295031 15.79696909 10.35644531 13.40551758 C10.3656601 12.69637207 10.37487488 11.98722656 10.3843689 11.2565918 C10.36018513 8.4263701 10.31298909 6.46516182 8.70819092 4.0801239 C5.99164709 2.36239792 3.14705585 2.29689206 0 2 C0 1.34 0 0.68 0 0 Z " fill="#036B50" transform="translate(100,552)"/>
<path d="M0 0 C10.23 0 20.46 0 31 0 C31 0.66 31 1.32 31 2 C30.030625 2.309375 29.06125 2.61875 28.0625 2.9375 C25.15934208 3.69523342 25.15934208 3.69523342 24 5 C23.88520338 6.80232484 23.84035114 8.60914539 23.82299805 10.41503906 C23.81016281 11.57424866 23.79732758 12.73345825 23.78410339 13.92779541 C23.77671646 15.19427917 23.76932953 16.46076294 23.76171875 17.765625 C23.753647 19.06514099 23.74557526 20.36465698 23.73725891 21.70355225 C23.72220141 24.46773143 23.71238369 27.23188472 23.70483398 29.99609375 C23.69387397 33.5026957 23.65961268 37.0086445 23.61966228 40.51501846 C23.5868564 43.89019126 23.5826844 47.26530531 23.57421875 50.640625 C23.55671066 51.88281799 23.53920258 53.12501099 23.52116394 54.40484619 C23.54669388 64.85076544 24.82668752 74.96529105 32 83 C33.98157528 84.5672001 33.98157528 84.5672001 36.0625 85.75 C36.73410156 86.15734375 37.40570313 86.5646875 38.09765625 86.984375 C43.92620599 90.0961264 50.5887863 89.63565338 57 89 C60.61547044 87.71274382 63.72021159 85.96529561 67 84 C67.99 83.67 68.98 83.34 70 83 C71.12681294 81.18502497 71.12681294 81.18502497 72 79 C72.51240234 77.93652344 72.51240234 77.93652344 73.03515625 76.8515625 C73.37417969 76.11679687 73.71320313 75.38203125 74.0625 74.625 C74.40410156 73.89539063 74.74570312 73.16578125 75.09765625 72.4140625 C76.86301229 67.69116193 77.12672535 62.93790848 77.14526367 57.93457031 C77.15164352 56.76025452 77.15802338 55.58593872 77.16459656 54.3760376 C77.16570938 53.12272644 77.1668222 51.86941528 77.16796875 50.578125 C77.17129715 49.28179138 77.17462555 47.98545776 77.17805481 46.64984131 C77.18402 43.91645472 77.18589712 41.18309966 77.18530273 38.44970703 C77.1852006 34.94349675 77.19891694 31.43748665 77.21607494 27.93132401 C77.22983501 24.58442092 77.22928219 21.23755605 77.23046875 17.890625 C77.24124702 15.99851288 77.24124702 15.99851288 77.25224304 14.06817627 C77.2476281 12.32561554 77.2476281 12.32561554 77.24291992 10.54785156 C77.24434494 9.52226135 77.24576996 8.49667114 77.24723816 7.44000244 C77.2415068 4.82002647 77.2415068 4.82002647 75 3 C72.34462628 2.43479997 69.70855287 2.26211802 67 2 C67 1.34 67 0.68 67 0 C76.57 0 86.14 0 96 0 C96 0.66 96 1.32 96 2 C93.69 2.66 91.38 3.32 89 4 C88.07872804 7.14667095 87.86014109 9.99476436 87.82641602 13.26831055 C87.81292618 14.3200798 87.79943634 15.37184906 87.78553772 16.45549011 C87.77509933 17.58779556 87.76466095 18.72010101 87.75390625 19.88671875 C87.7209582 22.2936233 87.68774672 24.70052425 87.65429688 27.10742188 C87.60697673 30.89474946 87.5625565 34.68206348 87.52319336 38.46948242 C87.48328794 42.12955022 87.43177936 45.78931844 87.37890625 49.44921875 C87.3704921 50.57140305 87.36207794 51.69358734 87.35340881 52.84977722 C87.1588806 65.3281297 84.85103586 76.73756911 76.125 86.140625 C65.5380535 95.40420319 53.60666082 95.70912648 40.25390625 95.17480469 C31.40674618 94.48865146 24.95080331 90.33121996 19 84 C18.51789063 83.52304687 18.03578125 83.04609375 17.5390625 82.5546875 C6.59609218 69.88737034 9.39832461 47.4589855 9.375 32.125 C9.35865523 28.25849951 9.33672642 24.39224056 9.30337524 20.52584839 C9.28373092 18.13538899 9.27441189 15.7448178 9.27645874 13.35427856 C9.26949982 12.28491058 9.26254089 11.2155426 9.25537109 10.11376953 C9.25411224 9.17163605 9.25285339 8.22950256 9.2515564 7.25881958 C9.21567413 4.799342 9.21567413 4.799342 7 3 C4.67724823 2.59952556 2.34260643 2.2602896 0 2 C0 1.34 0 0.68 0 0 Z " fill="#076E53" transform="translate(191,552)"/>
<path d="M0 0 C1.32575494 4.82181981 0.90062439 9.38832067 0.5625 14.3125 C0.51029297 15.14845703 0.45808594 15.98441406 0.40429688 16.84570312 C0.27532629 18.89750789 0.13844979 20.94881306 0 23 C-1.485 23.495 -1.485 23.495 -3 24 C-3.14695312 23.19175781 -3.29390625 22.38351562 -3.4453125 21.55078125 C-4.84774646 13.7249131 -4.84774646 13.7249131 -9.90234375 7.95703125 C-23.0092223 1.97717046 -37.47155253 0.92597869 -51.31640625 4.96484375 C-59.03139213 7.94078444 -65.03930206 12.69257249 -69 20 C-74.52582397 32.51487236 -74.8844993 46.10805597 -70.31640625 58.96875 C-65.11794386 70.93909663 -57.67233073 78.78693595 -45.625 83.9375 C-35.43520177 87.90318665 -22.71596064 89.11567408 -12.1875 85.5 C-6.28689869 82.64618078 -4.20208242 77.74761697 -1.6875 72 C-1.460625 71.34 -1.23375 70.68 -1 70 C-0.34 70 0.32 70 1 70 C1.44003171 76.4537984 0.9329337 85.45845679 -3.32006836 90.59399414 C-9.44012211 95.71612604 -20.32526128 94.33241614 -27.75 94.3125 C-28.9359375 94.32861328 -30.121875 94.34472656 -31.34375 94.36132812 C-46.45068138 94.36957427 -59.19396344 90.76673415 -71.375 81.6875 C-81.7560647 71.0592671 -86.45320875 59.56055067 -86.5625 44.875 C-86.45743294 36.9989352 -85.92557696 29.99776762 -82 23 C-81.56429687 22.21882812 -81.12859375 21.43765625 -80.6796875 20.6328125 C-73.60821986 9.15616829 -64.00020731 2.18252708 -51.23828125 -1.87890625 C-34.57898331 -5.3566867 -16.50773064 -3.23605455 0 0 Z " fill="#066D52" transform="translate(722,553)"/>
<path d="M0 0 C-0.66 5.28 -1.32 10.56 -2 16 C-2.66 16 -3.32 16 -4 16 C-4.185625 14.88625 -4.37125 13.7725 -4.5625 12.625 C-5.036875 11.42875 -5.51125 10.2325 -6 9 C-11.6653794 6.70974024 -17.3874789 6.58480433 -23.4375 6.375 C-28.1709375 6.189375 -28.1709375 6.189375 -33 6 C-33 17.88 -33 29.76 -33 42 C-27.2765625 41.814375 -27.2765625 41.814375 -21.4375 41.625 C-20.24825928 41.59100098 -19.05901855 41.55700195 -17.83374023 41.52197266 C-16.87669189 41.4863623 -15.91964355 41.45075195 -14.93359375 41.4140625 C-13.96478271 41.3826416 -12.99597168 41.3512207 -11.99780273 41.31884766 C-8.27657326 41.00970535 -8.27657326 41.00970535 -2 39 C-2.66 44.94 -3.32 50.88 -4 57 C-4.66 57 -5.32 57 -6 57 C-6.28875 55.865625 -6.5775 54.73125 -6.875 53.5625 C-7.24625 52.386875 -7.6175 51.21125 -8 50 C-10.51677113 48.74161443 -12.41293288 48.79181027 -15.2265625 48.68359375 C-16.2578125 48.64169922 -17.2890625 48.59980469 -18.3515625 48.55664062 C-19.97191406 48.49766602 -19.97191406 48.49766602 -21.625 48.4375 C-23.25695312 48.37272461 -23.25695312 48.37272461 -24.921875 48.30664062 C-27.6144517 48.2003547 -30.30712253 48.09831943 -33 48 C-32.93109298 53.05419674 -32.8431126 58.10756854 -32.73754883 63.16113281 C-32.70432319 64.87978965 -32.67628384 66.59855499 -32.65356445 68.31738281 C-32.61997439 70.79018323 -32.56765822 73.26199156 -32.51171875 75.734375 C-32.50532883 76.50118591 -32.4989389 77.26799683 -32.49235535 78.05804443 C-32.40598045 81.20181837 -32.17463698 83.64532633 -30.77612305 86.4855957 C-28.4414406 88.47625346 -27.11745869 88.50255314 -24.0703125 88.49609375 C-23.10996094 88.49673828 -22.14960937 88.49738281 -21.16015625 88.49804688 C-20.15855469 88.47806641 -19.15695312 88.45808594 -18.125 88.4375 C-17.13113281 88.44458984 -16.13726563 88.45167969 -15.11328125 88.45898438 C-8.01072049 88.46726491 -8.01072049 88.46726491 -2 85 C-0.80126145 83.23419884 -0.80126145 83.23419884 -0.1875 81.3125 C0.204375 80.219375 0.59625 79.12625 1 78 C1.66 78 2.32 78 3 78 C3.29313832 82.49478758 2.84227361 85.94351663 1.48828125 90.2578125 C1.21153564 91.14871582 0.93479004 92.03961914 0.6496582 92.95751953 C0.435271 93.63153809 0.22088379 94.30555664 0 95 C-18.02386816 95.1607679 -35.99150604 94.66639049 -54 94 C-54 93.34 -54 92.68 -54 92 C-50.535 91.505 -50.535 91.505 -47 91 C-46.19238419 86.03568314 -45.84701936 81.21743356 -45.83886719 76.18457031 C-45.83390228 75.43734207 -45.82893738 74.69011383 -45.82382202 73.92024231 C-45.80933219 71.47286024 -45.8024246 69.02554273 -45.796875 66.578125 C-45.79111757 64.86895752 -45.78535992 63.15979004 -45.77960205 61.45062256 C-45.76913312 57.88000185 -45.76326202 54.30940341 -45.75976562 50.73876953 C-45.75425536 46.15984064 -45.73015668 41.58120528 -45.70179367 37.00236893 C-45.68320195 33.47826256 -45.6779638 29.95422788 -45.67642975 26.4300766 C-45.67340048 24.74114101 -45.66536272 23.05220676 -45.65224457 21.3633194 C-45.63523824 19.00793162 -45.63704936 16.65327538 -45.64355469 14.29785156 C-45.6343399 13.59962784 -45.62512512 12.90140411 -45.6156311 12.18202209 C-45.63998729 9.37474072 -45.69671922 7.44915361 -47.29180908 5.08685303 C-50.00639491 3.35967149 -52.85013353 3.29715721 -56 3 C-56 2.34 -56 1.68 -56 1 C-48.66765367 0.85704418 -41.33529584 0.71468936 -34.00292969 0.57275391 C-31.50813533 0.52439008 -29.01334364 0.47588828 -26.51855469 0.42724609 C-22.93425172 0.35738498 -19.34993946 0.2880188 -15.765625 0.21875 C-14.64883362 0.19687622 -13.53204224 0.17500244 -12.38140869 0.15246582 C-11.34063171 0.13244507 -10.29985474 0.11242432 -9.22753906 0.09179688 C-7.85520111 0.06514954 -7.85520111 0.06514954 -6.45513916 0.03796387 C-4.3036461 0.00469529 -2.15175027 0 0 0 Z " fill="#076E52" transform="translate(922,551)"/>
<path d="M0 0 C-0.33 4.95 -0.66 9.9 -1 15 C-1.99 15.33 -2.98 15.66 -4 16 C-4.185625 14.88625 -4.37125 13.7725 -4.5625 12.625 C-5.036875 11.42875 -5.51125 10.2325 -6 9 C-11.6653794 6.70974024 -17.3874789 6.58480433 -23.4375 6.375 C-28.1709375 6.189375 -28.1709375 6.189375 -33 6 C-33 17.88 -33 29.76 -33 42 C-26.7196875 41.814375 -26.7196875 41.814375 -20.3125 41.625 C-19.00063721 41.59100098 -17.68877441 41.55700195 -16.3371582 41.52197266 C-14.77227661 41.46855713 -14.77227661 41.46855713 -13.17578125 41.4140625 C-12.11270752 41.3826416 -11.04963379 41.3512207 -9.9543457 41.31884766 C-6.56748276 41.08762497 -6.56748276 41.08762497 -2 39 C-2.33 44.61 -2.66 50.22 -3 56 C-3.99 56.33 -4.98 56.66 -6 57 C-6.66 54.69 -7.32 52.38 -8 50 C-13.93191412 48.56238317 -19.78097803 47.78849732 -25.87109375 47.43359375 C-26.90405579 47.36924133 -26.90405579 47.36924133 -27.95788574 47.30358887 C-29.63840337 47.19933116 -31.3191782 47.09923326 -33 47 C-32.95584362 52.19674904 -32.88600826 57.39228346 -32.79248047 62.58837891 C-32.76427603 64.35553311 -32.74305882 66.12281334 -32.72900391 67.89013672 C-32.70756642 70.43262222 -32.66091497 72.97359338 -32.609375 75.515625 C-32.60814636 76.30430969 -32.60691772 77.09299438 -32.60565186 77.90557861 C-32.51298712 81.385286 -32.27364214 83.60241955 -30.27832031 86.50146484 C-27.58616868 88.27219209 -26.13948299 88.4910003 -22.9375 88.4609375 C-21.49503906 88.45513672 -21.49503906 88.45513672 -20.0234375 88.44921875 C-19.02570313 88.42472656 -18.02796875 88.40023437 -17 88.375 C-16.00226563 88.37371094 -15.00453125 88.37242187 -13.9765625 88.37109375 C-7.69205597 88.38833745 -7.69205597 88.38833745 -2 86 C-0.88526866 84.06896092 -0.88526866 84.06896092 -0.25 81.875 C-0.00765625 81.15054688 0.2346875 80.42609375 0.484375 79.6796875 C0.65453125 79.12539063 0.8246875 78.57109375 1 78 C1.66 78 2.32 78 3 78 C3.08978444 83.11771285 3.00925009 87.95374956 2 93 C0 95 0 95 -1.84643555 95.24291992 C-2.98012573 95.23675659 -2.98012573 95.23675659 -4.13671875 95.23046875 C-5.00997803 95.22917969 -5.8832373 95.22789062 -6.78295898 95.2265625 C-7.74145752 95.21367188 -8.69995605 95.20078125 -9.6875 95.1875 C-10.67886963 95.18105469 -11.67023926 95.17460938 -12.69165039 95.16796875 C-26.46553772 95.03341502 -40.23584296 94.50933206 -54 94 C-53.505 93.01 -53.505 93.01 -53 92 C-52.01 91.690625 -51.02 91.38125 -50 91.0625 C-49.01 90.711875 -48.02 90.36125 -47 90 C-45.78922883 86.3676865 -45.85243138 83.03703663 -45.85473633 79.25561523 C-45.85137772 78.46835052 -45.8480191 77.68108582 -45.84455872 76.8699646 C-45.83505479 74.2661583 -45.83310612 71.66241631 -45.83203125 69.05859375 C-45.82881914 67.25163242 -45.82545511 65.44467135 -45.82194519 63.63771057 C-45.81595594 59.85067135 -45.81410517 56.06365495 -45.81469727 52.27661133 C-45.81479907 47.41504488 -45.8011267 42.55362386 -45.78392506 37.69209194 C-45.77283019 33.96128156 -45.77077725 30.23050667 -45.77130699 26.49968147 C-45.77012385 24.70666056 -45.76568348 22.91363881 -45.75797462 21.12063408 C-45.74822188 18.61864761 -45.75103352 16.11698141 -45.75708008 13.61499023 C-45.75146057 12.8694841 -45.74584106 12.12397797 -45.74005127 11.35588074 C-45.63439709 7.22377757 -45.63439709 7.22377757 -48 4 C-50.32275177 3.59952556 -52.65739357 3.2602896 -55 3 C-55 2.34 -55 1.68 -55 1 C-47.97079869 0.85687915 -40.94158179 0.71454417 -33.91235352 0.57275391 C-31.52139933 0.52443215 -29.13044877 0.4759309 -26.73950195 0.42724609 C-23.30160444 0.35727435 -19.86369439 0.28794939 -16.42578125 0.21875 C-15.35789871 0.19687622 -14.29001617 0.17500244 -13.18977356 0.15246582 C-12.18911362 0.13244507 -11.18845367 0.11242432 -10.1574707 0.09179688 C-8.84175835 0.06514954 -8.84175835 0.06514954 -7.49946594 0.03796387 C-4.99990024 -0.00000152 -2.49985401 0 0 0 Z " fill="#066D52" transform="translate(449,551)"/>
<path d="M0 0 C0 5.28 0 10.56 0 16 C-0.99 16 -1.98 16 -3 16 C-3.495 14.14375 -3.495 14.14375 -4 12.25 C-5.25950308 8.97645282 -6.37672135 7.25628879 -9.4375 5.5 C-15.79062307 2.86263341 -23.54914433 2.77363143 -30 5.1875 C-33.34462131 7.20820871 -35.09761143 8.57570057 -37 12 C-37.68396436 17.21522826 -37.20836697 21.30419427 -34.64453125 25.93359375 C-30.96494427 30.55711278 -25.82683074 33.68082341 -21 37 C0.34332425 51.8773842 0.34332425 51.8773842 3 63 C3.97790783 71.59649206 2.93860723 78.31999589 -1.6875 85.6875 C-8.80988357 92.80988357 -17.05670613 95.2130515 -26.95361328 95.32836914 C-27.7526709 95.32313232 -28.55172852 95.31789551 -29.375 95.3125 C-30.20628418 95.31048584 -31.03756836 95.30847168 -31.89404297 95.30639648 C-45.92270448 95.07729552 -45.92270448 95.07729552 -50 91 C-50.10022387 88.93951522 -50.12966196 86.87541556 -50.125 84.8125 C-50.12757813 83.68457031 -50.13015625 82.55664062 -50.1328125 81.39453125 C-50.00688006 78.17584633 -49.60422627 75.16019928 -49 72 C-48.34 72 -47.68 72 -47 72 C-46.82984375 72.67546875 -46.6596875 73.3509375 -46.484375 74.046875 C-44.64940853 80.80111328 -43.19670342 84.09558094 -37.0625 87.75 C-30.43383351 90.33575137 -21.95860603 90.2706397 -15.4375 87.4375 C-11.56161937 85.09394427 -9.37718711 82.31008558 -8 78 C-7.15714329 73.9557665 -7.22535213 70.5801681 -9.06591797 66.82568359 C-12.88891807 60.98975156 -17.12780834 57.07504279 -22.75 53 C-24.35477146 51.79159069 -25.95764908 50.58066212 -27.55859375 49.3671875 C-28.32413574 48.7906543 -29.08967773 48.21412109 -29.87841797 47.62011719 C-38.39591917 41.11584354 -46.49697112 34.70350785 -48 23.5625 C-48.32105032 16.3087694 -46.83875829 10.64492944 -41.9375 5.1875 C-30.55166898 -4.92801103 -13.91258475 -3.59034445 0 0 Z " fill="#066D52" transform="translate(611,552)"/>
<path d="M0 0 C0.69570602 0.14203354 1.39141205 0.28406708 2.10820007 0.43040466 C5.55341597 1.10900587 8.75629036 1.1195919 12.26879883 1.11352539 C12.98153961 1.11367142 13.6942804 1.11381744 14.42861938 1.1139679 C16.7714549 1.11327432 19.11420972 1.105508 21.45703125 1.09765625 C23.08656267 1.0957901 24.71609465 1.09436713 26.34562683 1.09336853 C30.62488364 1.08955888 34.90410626 1.07974188 39.18334961 1.06866455 C43.55386899 1.05841702 47.92439393 1.05386376 52.29492188 1.04882812 C60.86329865 1.03811818 69.43164113 1.02053399 78 1 C78 6.61 78 12.22 78 18 C77.01 18 76.02 18 75 18 C74.690625 16.329375 74.690625 16.329375 74.375 14.625 C73.42110201 10.88260769 73.42110201 10.88260769 70.65625 9.8125 C65.4901167 8.66447038 60.40300862 8.53100025 55.125 8.375 C54.05507813 8.33632813 52.98515625 8.29765625 51.8828125 8.2578125 C49.25537592 8.16397548 46.62793829 8.07828443 44 8 C44.10758142 18.21403305 44.22023106 28.42799645 44.33933926 38.64190197 C44.39448778 43.38469853 44.44789477 48.12750134 44.49731445 52.87036133 C44.54507717 57.4480396 44.59742409 62.02564467 44.65294075 66.60323524 C44.67331041 68.34909554 44.69203225 70.09497586 44.70907402 71.84087181 C44.73323762 74.28746141 44.76327541 76.733914 44.79467773 79.18041992 C44.80331093 80.26151787 44.80331093 80.26151787 44.81211853 81.36445618 C44.86549396 85.02643902 45.13693544 88.43682768 46 92 C49.3 92.33 52.6 92.66 56 93 C56 93.66 56 94.32 56 95 C45.11 95 34.22 95 23 95 C23 94.34 23 93.68 23 93 C24.423125 92.9071875 24.423125 92.9071875 25.875 92.8125 C27.421875 92.4103125 27.421875 92.4103125 29 92 C31.3287519 87.91451118 31.30511409 83.76253415 31.31884766 79.18041992 C31.33391609 78.02352661 31.33391609 78.02352661 31.34928894 76.84326172 C31.38006606 74.30567132 31.39714071 71.76818617 31.4140625 69.23046875 C31.43277856 67.46640623 31.4523523 65.70235262 31.4727478 63.93830872 C31.52402873 59.30401874 31.56367606 54.66969975 31.60089111 50.03527832 C31.64095609 45.30274299 31.69203706 40.57032792 31.7421875 35.83789062 C31.83889896 26.55867829 31.92331905 17.27939797 32 8 C27.60302024 8.02281937 23.20863425 8.10015958 18.8125 8.1875 C16.94368164 8.19620117 16.94368164 8.19620117 15.03710938 8.20507812 C7.81266466 8.05739297 7.81266466 8.05739297 1.76171875 11.36328125 C0.50678807 13.24150344 -0.74699505 15.12049257 -2 17 C-2.66 17 -3.32 17 -4 17 C-2.09756098 2.09756098 -2.09756098 2.09756098 0 0 Z " fill="#036C50" transform="translate(469,550)"/>
<path d="M0 0 C4.02058602 -0.11686443 8.04073082 -0.18747388 12.0625 -0.25 C13.19623047 -0.28351562 14.32996094 -0.31703125 15.49804688 -0.3515625 C22.2404363 -0.43019095 26.58819067 -0.17332315 32 4 C34.70214613 8.05321919 34.65756734 11.23857867 34 16 C32.37304984 20.11145533 29.65137228 23.49775754 27 27 C29.05509106 29.4230528 31.12036026 31.837222 33.1875 34.25 C33.76564453 34.93191406 34.34378906 35.61382813 34.93945312 36.31640625 C41.52911545 44.07796455 41.52911545 44.07796455 51 47 C51.25523437 46.27941406 51.51046875 45.55882812 51.7734375 44.81640625 C53.08084849 41.81435745 54.65044412 39.54532978 56.625 36.9375 C60.96497886 31.09101768 64.99209016 25.0769752 69 19 C70.83053278 16.24813053 72.66531528 13.4991025 74.5 10.75 C75.36465544 9.45317308 76.22924506 8.15630226 77.09375 6.859375 C78.03734375 5.44398438 78.03734375 5.44398438 79 4 C75.75007554 3.94180576 72.50028565 3.90633884 69.25 3.875 C68.32960938 3.85824219 67.40921875 3.84148438 66.4609375 3.82421875 C65.57148437 3.81777344 64.68203125 3.81132813 63.765625 3.8046875 C62.94868164 3.79421387 62.13173828 3.78374023 61.29003906 3.77294922 C57.60417978 4.13839156 55.59107424 5.282267 53.25 8.125 C52.63125 9.053125 52.63125 9.053125 52 10 C51.97310784 8.52093108 51.95365379 7.04172517 51.9375 5.5625 C51.92589844 4.73878906 51.91429687 3.91507813 51.90234375 3.06640625 C52 1 52 1 53 0 C55.59359322 -0.08851529 58.16039691 -0.11525945 60.75390625 -0.09765625 C61.52935287 -0.0962413 62.3047995 -0.09482635 63.10374451 -0.09336853 C65.59003494 -0.08775345 68.0762366 -0.07519846 70.5625 -0.0625 C72.24413933 -0.05748694 73.92578006 -0.0529237 75.60742188 -0.04882812 C79.73831566 -0.03777913 83.86914276 -0.02050445 88 0 C86.29219586 5.22957321 83.16714616 9.50097517 80.1171875 14.01953125 C79.54292023 14.87810226 78.96865295 15.73667328 78.37698364 16.6212616 C76.5473124 19.35460073 74.71125827 22.0835828 72.875 24.8125 C71.63108666 26.66833583 70.38759218 28.52445248 69.14453125 30.38085938 C66.10120139 34.92383896 63.05262391 39.46326101 60 44 C63.77076889 44.05799124 67.54142334 44.09359306 71.3125 44.125 C72.38435547 44.14175781 73.45621094 44.15851562 74.56054688 44.17578125 C76.10258789 44.18544922 76.10258789 44.18544922 77.67578125 44.1953125 C79.0975769 44.21102295 79.0975769 44.21102295 80.5480957 44.22705078 C83.25689249 44.17223875 83.25689249 44.17223875 86 42 C87.19232613 39.94996045 87.19232613 39.94996045 88 38 C88.33 38 88.66 38 89 38 C89.16702456 42.34263862 89.12999997 45.20960634 87 49 C80.39810582 49.07612856 73.79632506 49.12863283 67.1940918 49.16479492 C64.94860606 49.17987182 62.70314971 49.20033653 60.45776367 49.22631836 C57.22827901 49.26274918 53.99918406 49.27973755 50.76953125 49.29296875 C49.76727005 49.30845261 48.76500885 49.32393646 47.7323761 49.33988953 C41.0915319 49.34148933 37.56998777 48.5171798 32.71875 43.765625 C31.9865625 42.93546875 31.254375 42.1053125 30.5 41.25 C29.71625 40.36957031 28.9325 39.48914063 28.125 38.58203125 C26.34676714 36.42134757 24.92654821 34.32994024 23.5 31.9375 C20.73999994 28.69449993 20.19214266 28.52337645 16.1875 28.0625 C14.805625 28.041875 13.42375 28.02125 12 28 C12.33 33.94 12.66 39.88 13 46 C14.32 46.33 15.64 46.66 17 47 C17 47.66 17 48.32 17 49 C11.72 49 6.44 49 1 49 C1 48.34 1 47.68 1 47 C2.485 46.505 2.485 46.505 4 46 C4 31.48 4 16.96 4 2 C2.68 1.34 1.36 0.68 0 0 Z " fill="#C6B057" transform="translate(618,726)"/>
<path d="M0 0 C178.86 0 357.72 0 542 0 C542 0.99 542 1.98 542 3 C363.14 3 184.28 3 0 3 C0 2.01 0 1.02 0 0 Z " fill="#C2AA4A" transform="translate(300,684)"/>
<path d="M0 0 C0.66 0 1.32 0 2 0 C2.20753906 0.66386719 2.41507813 1.32773438 2.62890625 2.01171875 C4.91738342 8.57074327 6.92661398 11.57681879 13 15 C19.05874469 17.01958156 24.38670061 16.31679896 30.16796875 13.93359375 C32.74626668 12.61970632 34.86285268 10.93678976 37 9 C37.08636719 9.66386719 37.17273438 10.32773438 37.26171875 11.01171875 C37.94307418 15.29363131 38.64046497 18.43822651 41 22.125 C45.29415605 24.80884753 49.06350739 24.56187721 54 24 C55.32 23.67 56.64 23.34 58 23 C55.36 28.28 52.72 33.56 50 39 C45.89015096 38.17803019 42.65807944 37.17072621 38.8125 35.625 C33.26465983 33.45953258 27.76792942 31.48849791 22 30 C20.83210937 29.690625 20.83210937 29.690625 19.640625 29.375 C-1.49834976 24.64827273 -23.91867596 28.94945205 -43.16015625 38.265625 C-45 39 -45 39 -48 39 C-50.64 33.72 -53.28 28.44 -56 23 C-54.68 23.33 -53.36 23.66 -52 24 C-47.68847557 24.40107204 -44.08201809 24.46043323 -40.0625 22.75 C-35.5645675 18.93357242 -35.56057942 14.60579421 -35 9 C-34.37351562 9.42152344 -33.74703125 9.84304687 -33.1015625 10.27734375 C-32.28429687 10.82519531 -31.46703125 11.37304688 -30.625 11.9375 C-29.81289063 12.48277344 -29.00078125 13.02804688 -28.1640625 13.58984375 C-23.51966051 16.6162501 -19.45464294 16.6769671 -14 16 C-9.05984435 14.2920082 -5.21982936 11.97707131 -2.5 7.4375 C-0.91473227 3.80917313 -0.91473227 3.80917313 0 0 Z " fill="#066D52" transform="translate(570,102)"/>
<path d="M0 0 C1.72383151 -0.03239288 3.44784358 -0.05524356 5.171875 -0.07421875 C6.1319043 -0.08799561 7.09193359 -0.10177246 8.08105469 -0.1159668 C15.48423377 0.17815415 22.69536883 2.72236441 28 8 C34.03172753 16.00574744 34.76982619 23.06924216 34 33 C32.81001358 37.69542834 30.80964329 40.26396065 27.25 43.5 C23.33510108 45.42325821 19.1570606 45.38337011 14.875 45.4375 C14.18180664 45.4478125 13.48861328 45.458125 12.77441406 45.46875 C8.35746326 45.39233951 5.49576888 44.72106552 2 42 C-0.62202981 38.06695528 -0.25148527 34.73374931 -0.1953125 30.17578125 C-0.1924826 29.31438034 -0.18965271 28.45297943 -0.18673706 27.56547546 C-0.17554237 24.81434231 -0.15043921 22.06353475 -0.125 19.3125 C-0.11496927 17.44727033 -0.10584359 15.58203555 -0.09765625 13.71679688 C-0.07560538 9.1444058 -0.04108049 4.57225811 0 0 Z " fill="#FBFDFC" transform="translate(326,596)"/>
<path d="M0 0 C-0.89203125 0.7734375 -1.7840625 1.546875 -2.703125 2.34375 C-12.66137366 10.69720202 -12.66137366 10.69720202 -17.35546875 22.37109375 C-18.15295631 36.87674591 -11.52683015 52.41950954 -7 66 C-6.20392654 72.63394553 -8.42654423 76.63762941 -12 82 C-15.12487359 85.72024779 -18.58677633 89.09434341 -22.02929688 92.51757812 C-28.00020746 98.61300059 -34.87517102 105.97537368 -34.8125 115 C-34.48002533 122.40193615 -31.72690289 128.7340449 -28.82421875 135.4453125 C-24.99050985 144.66347824 -23.52809785 153.09667763 -23.6875 163.0625 C-23.68266602 164.5794043 -23.68266602 164.5794043 -23.67773438 166.12695312 C-23.73379313 174.04143067 -24.16817083 181.92624036 -28 189 C-29.53070618 185.93858765 -28.50078487 183.35088938 -28 180 C-26.85154149 160.77744033 -30.89691076 145.06630947 -39.15136719 127.79223633 C-42.34779149 121.04167511 -43.47217712 115.39850469 -41.04296875 108.140625 C-37.38539858 100.17197068 -32.07343439 93.98253165 -26.31005859 87.5 C-20.13329322 80.42768422 -16.64261227 76.16193134 -16.7109375 66.6875 C-17.41945032 57.64917426 -20.13825365 48.83500465 -22.75 40.1875 C-25.06163887 31.77109108 -25.18662282 23.80383507 -21.12890625 15.95703125 C-20.75636719 15.31121094 -20.38382812 14.66539062 -20 14 C-19.401875 12.948125 -18.80375 11.89625 -18.1875 10.8125 C-13.96788409 5.38727954 -7.27461761 -2.22067274 0 0 Z " fill="#107257" transform="translate(492,197)"/>
<path d="M0 0 C-0.33 0.99 -0.66 1.98 -1 3 C-1.83942898 10.87136681 -0.30503572 15.79967612 4.54296875 21.9609375 C8.00991444 26.1022319 11.78765622 29.65413832 15.88671875 33.15625 C24.25027204 40.45310241 32.87841994 48.56147242 34.25390625 60.13671875 C34.69691957 69.0112759 31.60396648 76.9585579 28.3984375 85.10546875 C27.98972412 86.15420166 27.98972412 86.15420166 27.57275391 87.22412109 C27.03949576 88.577679 26.49305061 89.9261448 25.93115234 91.26806641 C23.31535827 97.84035414 23.02415016 103.05663954 25.64453125 109.515625 C26.35616723 111.09875001 27.0792353 112.6767761 27.8125 114.25 C35.85642369 132.51259471 37.29236589 148.19453524 30 167 C29.34 167.33 28.68 167.66 28 168 C28.144375 167.38898438 28.28875 166.77796875 28.4375 166.1484375 C32.48248452 146.2044166 30.77583105 129.83579116 19.70703125 112.75 C16.65357762 107.83093512 16.29753777 103.43793279 17.45654297 97.765625 C18.07777312 95.33108803 18.7449878 92.91520783 19.4375 90.5 C21.95098628 81.58662847 23.19466373 73.26882439 23.25 64 C23.270625 63.13632812 23.29125 62.27265625 23.3125 61.3828125 C23.3589546 53.74103036 21.70040461 48.40008367 16.5078125 42.5234375 C14.1654343 40.15678595 11.64248729 38.0156023 9.1171875 35.84765625 C1.26842423 28.99808978 -7.17651193 20.90548543 -8.3125 10 C-7.95242323 6.54326301 -7.07384621 4.76512828 -5 2 C-2 0 -2 0 0 0 Z " fill="#137458" transform="translate(657,201)"/>
<path d="M0 0 C2.64 0 5.28 0 8 0 C7.67 0.66 7.34 1.32 7 2 C6.91573906 3.6674606 6.89274857 5.33825187 6.90234375 7.0078125 C6.90556641 7.99394531 6.90878906 8.98007812 6.91210938 9.99609375 C6.92048828 11.02863281 6.92886719 12.06117188 6.9375 13.125 C6.94201172 14.16527344 6.94652344 15.20554687 6.95117188 16.27734375 C6.96298048 18.85161962 6.97944925 21.42578146 7 24 C8.61356504 22.46817277 10.21546607 20.92405437 11.8125 19.375 C12.70582031 18.51648438 13.59914063 17.65796875 14.51953125 16.7734375 C17.01370817 13.98467275 18.49610409 11.40749838 20 8 C22.97 8 25.94 8 29 8 C28.12988281 8.64195312 28.12988281 8.64195312 27.2421875 9.296875 C25.14327226 10.89117299 23.12367371 12.53226437 21.125 14.25 C20.16980469 15.06210937 20.16980469 15.06210937 19.1953125 15.890625 C16.2334256 18.73656615 13.62929241 21.84836803 11 25 C13.67059842 27.78755236 16.36423314 30.55174226 19.0625 33.3125 C19.81466797 34.09818359 20.56683594 34.88386719 21.34179688 35.69335938 C25.65204106 40.07823982 29.12160665 43.08737534 35 45 C35 45.33 35 45.66 35 46 C30.26102819 46.81671642 26.52847763 46.98847655 22.390625 44.3125 C16.80561369 39.31721038 11.87084414 33.6826515 7 28 C7 35.92 7 43.84 7 52 C8.32 52.66 9.64 53.32 11 54 C6.71 54 2.42 54 -2 54 C-1.01 53.34 -0.02 52.68 1 52 C1.73343428 48.93443402 1.73343428 48.93443402 2 46 C1.10796875 45.94585937 0.2159375 45.89171875 -0.703125 45.8359375 C-4.95634723 44.75751385 -6.12093873 43.07904257 -8.75 39.625 C-9.50796875 38.64789063 -10.2659375 37.67078125 -11.046875 36.6640625 C-12.40818591 34.80723442 -13.72286644 32.91570034 -15 31 C-18.56769552 30.26393501 -18.56769552 30.26393501 -22 30 C-22 34.62 -22 39.24 -22 44 C-20.35 44.33 -18.7 44.66 -17 45 C-17 45.33 -17 45.66 -17 46 C-21.29 46 -25.58 46 -30 46 C-29.01 45.34 -28.02 44.68 -27 44 C-26.69558084 41.39922648 -26.57982555 39.04016599 -26.6015625 36.4375 C-26.59869232 35.69040771 -26.59582214 34.94331543 -26.59286499 34.17358398 C-26.59082253 32.59325401 -26.59636519 31.01289887 -26.60888672 29.43261719 C-26.62493911 27.00919236 -26.60904561 24.58743526 -26.58984375 22.1640625 C-26.59182615 20.63020464 -26.59566977 19.09634782 -26.6015625 17.5625 C-26.59245346 16.47183228 -26.59245346 16.47183228 -26.5831604 15.35913086 C-26.58003886 13.09813197 -26.58003886 13.09813197 -27 10 C-27.99 9.34 -28.98 8.68 -30 8 C-26.93654856 7.89177208 -23.8769399 7.81258521 -20.8125 7.75 C-19.94818359 7.71648437 -19.08386719 7.68296875 -18.19335938 7.6484375 C-13.9388206 7.58323384 -11.64272284 7.60169289 -7.94921875 9.890625 C-5.74499105 12.27596159 -5.09315776 13.36342197 -4.625 16.5625 C-5.15481223 21.4191121 -7.45062716 24.90279365 -10 29 C-8.94211533 30.39933447 -7.8784332 31.79428668 -6.8125 33.1875 C-6.22082031 33.96480469 -5.62914062 34.74210937 -5.01953125 35.54296875 C-2.83109569 38.2054948 -0.44977175 40.57844736 2 43 C1.88194465 37.19744647 1.75771038 31.39507112 1.62768555 25.59277344 C1.58430797 23.61787538 1.542635 21.64293913 1.50268555 19.66796875 C1.44505127 16.8332161 1.3813373 13.99865622 1.31640625 11.1640625 C1.29969376 10.27756012 1.28298126 9.39105774 1.26576233 8.47769165 C1.28914789 4.10074845 1.28914789 4.10074845 0 0 Z " fill="#066D52" transform="translate(570,428)"/>
<path d="M0 0 C1.03898438 0.32613281 2.07796875 0.65226562 3.1484375 0.98828125 C12.41052377 3.89317518 12.41052377 3.89317518 21.6875 6.75 C22.77611328 7.08257812 22.77611328 7.08257812 23.88671875 7.421875 C29.59634558 9.02620421 29.59634558 9.02620421 35.125 7.375 C43.08123153 3.90627711 51.60478 2.10311466 60 0 C59.33504438 4.99766643 58.01097515 7.92061431 55 12 C54.34 11.67 53.68 11.34 53 11 C47.76162753 10.46175912 44.71130245 11.86798021 40.1875 14.4375 C39.04667969 15.07558594 37.90585937 15.71367187 36.73046875 16.37109375 C34.1722808 17.7460566 34.1722808 17.7460566 33 19 C32.90043991 21.2898821 32.8703128 23.58295937 32.875 25.875 C32.87242187 27.13054687 32.86984375 28.38609375 32.8671875 29.6796875 C32.84592923 33.00121782 32.84592923 33.00121782 34 36 C44.03604958 35.08763186 52.12656754 31.66316488 61 27 C61.99 26.505 61.99 26.505 63 26 C61.90277394 28.69319123 60.91773884 30.07114479 58.6875 32 C55.09559137 35.34820981 53.85212551 39.9371043 52.2109375 44.453125 C51.81132813 45.29359375 51.41171875 46.1340625 51 47 C50.01 47.33 49.02 47.66 48 48 C48 45.36 48 42.72 48 40 C47.18015625 40.2165625 46.3603125 40.433125 45.515625 40.65625 C44.43796875 40.9346875 43.3603125 41.213125 42.25 41.5 C41.18265625 41.7784375 40.1153125 42.056875 39.015625 42.34375 C36 43 36 43 32 43 C32 44.98 32 46.96 32 49 C31.01 49.495 31.01 49.495 30 50 C29.505 46.535 29.505 46.535 29 43 C27.5459375 43.061875 27.5459375 43.061875 26.0625 43.125 C21.55110276 43.14348933 17.35162348 42.10517422 13 41 C13 43.64 13 46.28 13 49 C12.34 49 11.68 49 11 49 C9.99491199 47.21118264 8.99607264 45.41885304 8 43.625 C7.1646875 42.12839844 7.1646875 42.12839844 6.3125 40.6015625 C5 38 5 38 5 36 C4.278125 35.79375 3.55625 35.5875 2.8125 35.375 C-0.9255306 33.54751837 -2.49246917 31.29561194 -5 28 C-1.31089654 28 0.4464316 29.14034367 3.6875 30.875 C11.38431817 34.80666794 18.43030971 36.24618465 27 37 C27.13572155 34.60225255 27.23436868 32.21224755 27.3125 29.8125 C27.3753418 28.80219727 27.3753418 28.80219727 27.43945312 27.77148438 C27.53563565 23.82800085 27.18846591 22.22784685 24.64453125 19.15234375 C23.77183594 18.44207031 22.89914062 17.73179687 22 17 C21.13375 16.2575 20.2675 15.515 19.375 14.75 C14.82657696 11.39853039 10.16833708 11.72775371 4.71484375 11.4765625 C3.81894531 11.31929688 2.92304687 11.16203125 2 11 C-0.67927341 6.98108988 -0.15601248 4.75838077 0 0 Z " fill="#0C7156" transform="translate(543,313)"/>
<path d="M0 0 C6.75384422 0.08002185 10.27230964 1.16344167 15.0625 6.0625 C19.10049117 11.78298749 20.25726342 17.35672613 19.3125 24.25 C17.56483968 29.60634272 15.14292579 33.2027066 10.3125 36.25 C6.61328125 36.67578125 6.61328125 36.67578125 2.625 36.5625 C1.94888672 36.55283203 1.27277344 36.54316406 0.57617188 36.53320312 C-4.34640576 36.42054712 -4.34640576 36.42054712 -6.6875 35.25 C-6.7121519 30.42619198 -6.73033693 25.60242033 -6.74243164 20.77856445 C-6.74747174 19.13630536 -6.75430378 17.49405077 -6.76293945 15.85180664 C-6.77501926 13.49624521 -6.78073139 11.14074291 -6.78515625 8.78515625 C-6.79031754 8.04660904 -6.79547882 7.30806183 -6.80079651 6.5471344 C-6.8009925 4.78101912 -6.74944719 3.01502854 -6.6875 1.25 C-4.91035156 -0.52714844 -2.40479002 0.03549506 0 0 Z " fill="#FDFEFD" transform="translate(332.6875,555.75)"/>
<path d="M0 0 C5.28 0 10.56 0 16 0 C15.01 0.66 14.02 1.32 13 2 C12.49468134 3.92441415 12.49468134 3.92441415 12.48828125 6.1328125 C12.45516846 6.85871582 12.42205566 7.58461914 12.38793945 8.33251953 C12.35059692 9.71479736 12.35059692 9.71479736 12.3125 11.125 C12.209375 14.05375 12.10625 16.9825 12 20 C21.24 20 30.48 20 40 20 C39.9175 17.256875 39.835 14.51375 39.75 11.6875 C39.72631348 10.39718872 39.72631348 10.39718872 39.70214844 9.08081055 C39.65622559 8.05661011 39.65622559 8.05661011 39.609375 7.01171875 C39.58842773 6.31522217 39.56748047 5.61872559 39.54589844 4.90112305 C39.03373253 2.39682819 39.03373253 2.39682819 35 0 C40.28 0 45.56 0 51 0 C48 2 48 2 46 2 C46.33 16.85 46.66 31.7 47 47 C48.65 47 50.3 47 52 47 C52 47.66 52 48.32 52 49 C46.39 49 40.78 49 35 49 C35.495 48.01 35.495 48.01 36 47 C36.99 47 37.98 47 39 47 C39.33 39.41 39.66 31.82 40 24 C26.14 23.505 26.14 23.505 12 23 C12.33 30.59 12.66 38.18 13 46 C14.32 46.33 15.64 46.66 17 47 C17 47.66 17 48.32 17 49 C11.72 49 6.44 49 1 49 C1 48.34 1 47.68 1 47 C2.485 46.505 2.485 46.505 4 46 C4.33 31.48 4.66 16.96 5 2 C3.35 1.67 1.7 1.34 0 1 C0 0.67 0 0.34 0 0 Z " fill="#C5AF54" transform="translate(444,726)"/>
<path d="M0 0 C3.42563841 1.71281921 5.05368575 2.80561567 7.64453125 5.4140625 C8.32193359 6.09339844 8.99933594 6.77273438 9.69726562 7.47265625 C10.39529297 8.18292969 11.09332031 8.89320313 11.8125 9.625 C12.49892578 10.31207031 13.18535156 10.99914062 13.89257812 11.70703125 C17.86433453 15.71260583 21.6383834 19.83374559 25.32348633 24.10302734 C27.9067147 27.02594629 30.65763521 29.76547805 33.4375 32.5 C33.97826172 33.03625 34.51902344 33.5725 35.07617188 34.125 C36.38176617 35.41904036 37.69052996 36.70988174 39 38 C39.09150617 28.64603642 39.13986553 19.28558481 38.75 9.9375 C38.70359375 8.64714844 38.6571875 7.35679687 38.609375 6.02734375 C38.30773437 4.52880859 38.30773437 4.52880859 38 3 C36.68 2.34 35.36 1.68 34 1 C38.62 1 43.24 1 48 1 C47.01 1.66 46.02 2.32 45 3 C44.52482134 5.09247425 44.52482134 5.09247425 44.56762695 7.54150391 C44.54783279 8.48232819 44.52803864 9.42315247 44.50764465 10.39248657 C44.49805977 11.91910416 44.49805977 11.91910416 44.48828125 13.4765625 C44.47033005 14.51694672 44.45237885 15.55733093 44.43388367 16.62924194 C44.37958318 19.96111971 44.34582147 23.29285266 44.3125 26.625 C44.27934439 28.88022858 44.24485639 31.13543799 44.20898438 33.390625 C44.12384566 38.92695346 44.05557978 44.46330021 44 50 C39.50849656 48.58960487 36.72654267 46.13794641 33.5078125 42.8359375 C32.99878387 42.32503571 32.48975525 41.81413391 31.96530151 41.28775024 C30.89114222 40.2068876 29.82057724 39.12244245 28.75341797 38.03466797 C27.14396419 36.39432812 25.52434566 34.76464218 23.90234375 33.13671875 C18.90440625 28.10066873 13.98978521 23.022383 9.39794922 17.60791016 C8.00483177 16.00555746 6.50138442 14.50138442 5 13 C5 23.89 5 34.78 5 46 C6.65 46.66 8.3 47.32 10 48 C10 48.66 10 49.32 10 50 C5.05 50 0.1 50 -5 50 C-5 49.34 -5 48.68 -5 48 C-3.68 48 -2.36 48 -1 48 C-0.67 32.16 -0.34 16.32 0 0 Z " fill="#C5AE54" transform="translate(512,725)"/>
<path d="M0 0 C0.99 0.33 1.98 0.66 3 1 C4.35694034 3.78446967 5.5302963 6.50420633 6.65234375 9.3828125 C6.99374893 10.23044159 7.33515411 11.07807068 7.68690491 11.9513855 C8.7809806 14.67183972 9.86007072 17.39791477 10.9375 20.125 C12.01338406 22.82977687 13.09250168 25.53316361 14.17738342 28.23434448 C14.85207728 29.91608274 15.521356 31.60000711 16.18431091 33.28640747 C18.11274692 38.11486606 20.16618971 42.62934721 23 47 C25.62102997 48.04510361 25.62102997 48.04510361 28 48 C28 48.66 28 49.32 28 50 C23.05 50 18.1 50 13 50 C12.8453125 48.2365625 12.8453125 48.2365625 12.6875 46.4375 C12.32389977 43.42175691 11.69048317 40.95351945 10.4375 38.1875 C9 35 9 35 9 32 C0.585 32.495 0.585 32.495 -8 33 C-9.65 37.95 -11.3 42.9 -13 48 C-11.68 48 -10.36 48 -9 48 C-9 48.66 -9 49.32 -9 50 C-13.95 50 -18.9 50 -24 50 C-24 49.34 -24 48.68 -24 48 C-22.88625 47.7525 -22.88625 47.7525 -21.75 47.5 C-14.53982033 43.56717473 -12.26036234 31.01134997 -9.5 23.5625 C-6.54371155 15.60704941 -3.557774 7.71130733 0 0 Z " fill="#C6AF56" transform="translate(587,725)"/>
<path d="M0 0 C0.66 0 1.32 0 2 0 C2.54358154 1.2986499 2.54358154 1.2986499 3.09814453 2.62353516 C4.47316539 5.9077482 5.84872001 9.1917367 7.22460938 12.47558594 C7.81433383 13.88337717 8.40385957 15.29125167 8.99316406 16.69921875 C10.70669665 20.79298262 12.42512973 24.88463598 14.14855957 28.97424316 C15.00283332 31.00674107 15.85066216 33.04185162 16.69824219 35.07714844 C17.23346547 36.35102009 17.76893595 37.62478793 18.3046875 38.8984375 C19.01214111 40.59105713 19.01214111 40.59105713 19.73388672 42.31787109 C20.85169399 45.07675383 20.85169399 45.07675383 23 47 C25.06874034 47.6425235 25.06874034 47.6425235 27 48 C27 48.66 27 49.32 27 50 C22.38 50 17.76 50 13 50 C12.9175 49.05125 12.835 48.1025 12.75 47.125 C12.05650753 42.08424132 9.97849635 37.6590398 8 33 C2.72 33 -2.56 33 -8 33 C-8.9590625 35.3203125 -8.9590625 35.3203125 -9.9375 37.6875 C-10.29714844 38.55761719 -10.65679687 39.42773438 -11.02734375 40.32421875 C-11.9570312 42.88179265 -12.54162625 45.3221323 -13 48 C-12.01 48 -11.02 48 -10 48 C-10 48.66 -10 49.32 -10 50 C-14.95 50 -19.9 50 -25 50 C-24.67 49.34 -24.34 48.68 -24 48 C-23.21455811 47.75467529 -22.42911621 47.50935059 -21.61987305 47.2565918 C-17.97438776 45.50807696 -17.53922136 43.61733982 -16.08203125 39.89453125 C-15.83491898 39.27737747 -15.5878067 38.66022369 -15.33320618 38.02436829 C-14.53729101 36.02286723 -13.76797713 34.01236732 -13 32 C-12.47303577 30.65366643 -11.94487676 29.3077999 -11.41552734 27.96240234 C-9.81685869 23.87935177 -8.24942911 19.7847203 -6.6875 15.6875 C-5.63194546 12.91939758 -4.57290795 10.15266515 -3.51171875 7.38671875 C-3.05240967 6.18233154 -2.59310059 4.97794434 -2.11987305 3.73706055 C-1 1 -1 1 0 0 Z " fill="#C5AF55" transform="translate(413,725)"/>
<path d="M0 0 C0.33 0 0.66 0 1 0 C1.95049295 16.03516816 -0.59849713 28.03013928 -8.28564453 42.11645508 C-13.90249654 52.47276201 -14.72948713 61.41620578 -11.64697266 73 C-10.5642119 76.34716078 -9.00970177 79.39327692 -7.375 82.5 C-7.02598633 83.18288086 -6.67697266 83.86576172 -6.31738281 84.56933594 C-4.86046182 87.41926644 -3.38480419 90.25932945 -1.90917969 93.09960938 C4.53528867 105.54288677 9.49411914 116.73415967 10 131 C8.45079198 128.67618797 7.40138006 126.7886174 6.3359375 124.26171875 C6.02277588 123.53130371 5.70961426 122.80088867 5.38696289 122.04833984 C5.05301514 121.2692627 4.71906738 120.49018555 4.375 119.6875 C1.04876944 112.07144274 -2.68376352 104.94525212 -6.93505859 97.79785156 C-10.41002593 91.93135466 -13.75430495 85.9960564 -17 80 C-17.48082031 79.12988281 -17.96164062 78.25976562 -18.45703125 77.36328125 C-22.49228491 68.96482045 -22.69733982 58.34392147 -19.89453125 49.51953125 C-17.64453037 44.76014601 -15.04853365 40.87942592 -11.4375 37.0625 C-2.29797537 27.15630443 -1.5650266 12.76196487 0 0 Z " fill="#C5AE53" transform="translate(527,239)"/>
<path d="M0 0 C3.65835926 1.69955273 6.60540515 4.02697943 9.734375 6.546875 C12.5886905 8.75882987 13.57196753 9.28309466 17.296875 9.796875 C20.66056562 9.40897946 20.66056562 9.40897946 23.671875 8.234375 C27.73014889 6.96616441 29.60834122 6.89565645 33.671875 8.296875 C35.85793893 10.65008265 37.73054409 13.14709442 39.6484375 15.72265625 C45.22238601 22.81383785 52.23273938 25.65964512 60.671875 28.296875 C60.671875 28.626875 60.671875 28.956875 60.671875 29.296875 C48.81324989 29.02454749 42.19246031 24.17861761 33.73828125 16.1875 C31.17126358 13.80323336 31.17126358 13.80323336 27.859375 13.29443359 C27.1375 13.34422363 26.415625 13.39401367 25.671875 13.4453125 C15.06373388 13.96739191 8.87704022 13.67091357 0.671875 6.296875 C-2.94743198 5.09043934 -5.52043505 4.97418941 -9.328125 5.296875 C-14.31113593 8.27027659 -18.62927003 11.98212121 -23.00390625 15.76171875 C-30.43683903 22.08639934 -36.86698249 22.05878148 -46.328125 21.296875 C-55.30196648 19.29603184 -61.04037728 13.62307989 -67.328125 7.296875 C-66.998125 6.636875 -66.668125 5.976875 -66.328125 5.296875 C-65.79445313 5.75578125 -65.26078125 6.2146875 -64.7109375 6.6875 C-57.5204004 12.60911879 -50.03693165 17.19983723 -40.41796875 16.67578125 C-35.02852171 15.69862917 -31.62041947 12.71533786 -27.953125 8.921875 C-19.79089411 0.56100574 -11.9192261 -3.59976627 0 0 Z " fill="#0E7257" transform="translate(578.328125,171.703125)"/>
<path d="M0 0 C1.47583955 0.0001591 2.95168467 0.00585225 4.42749023 0.01586914 C5.20293686 0.01728409 5.97838348 0.01869904 6.77732849 0.02015686 C9.26361893 0.02577194 11.74982059 0.03832693 14.23608398 0.05102539 C15.91772331 0.05603845 17.59936405 0.06060169 19.28100586 0.06469727 C23.41189965 0.07574626 27.54272674 0.09302094 31.67358398 0.11352539 C29.96577985 5.3430986 26.84073014 9.61450056 23.79077148 14.13305664 C23.21650421 14.99162766 22.64223694 15.85019867 22.05056763 16.73478699 C20.22089639 19.46812612 18.38484226 22.1971082 16.54858398 24.92602539 C15.30467065 26.78186122 14.06117616 28.63797787 12.81811523 30.49438477 C9.77478538 35.03736435 6.7262079 39.5767864 3.67358398 44.11352539 C7.44435288 44.17151663 11.21500733 44.20711845 14.98608398 44.23852539 C16.05793945 44.2552832 17.12979492 44.27204102 18.23413086 44.28930664 C19.77617188 44.29897461 19.77617188 44.29897461 21.34936523 44.30883789 C22.297229 44.31931152 23.24509277 44.32978516 24.22167969 44.34057617 C26.93047647 44.28576414 26.93047647 44.28576414 29.67358398 42.11352539 C30.86591012 40.06348584 30.86591012 40.06348584 31.67358398 38.11352539 C32.00358398 38.11352539 32.33358398 38.11352539 32.67358398 38.11352539 C32.85058753 42.71561764 32.78172965 44.89723405 30.67358398 49.11352539 C15.16358398 49.11352539 -0.34641602 49.11352539 -16.32641602 49.11352539 C-16.32641602 48.78352539 -16.32641602 48.45352539 -16.32641602 48.11352539 C-10.88141602 47.61852539 -10.88141602 47.61852539 -5.32641602 47.11352539 C-4.66641602 45.46352539 -4.00641602 43.81352539 -3.32641602 42.11352539 C-2.16761045 40.39163824 -0.95429384 38.7057226 0.29858398 37.05102539 C4.63856285 31.20454307 8.66567415 25.19050059 12.67358398 19.11352539 C14.50411677 16.36165592 16.33889927 13.61262789 18.17358398 10.86352539 C19.03823943 9.56669847 19.90282904 8.26982765 20.76733398 6.97290039 C21.39639648 6.02930664 22.02545898 5.08571289 22.67358398 4.11352539 C19.42365952 4.05533115 16.17386963 4.01986423 12.92358398 3.98852539 C12.00319336 3.97176758 11.08280273 3.95500977 10.13452148 3.93774414 C9.24506836 3.93129883 8.35561523 3.92485352 7.43920898 3.91821289 C6.62226562 3.90773926 5.80532227 3.89726563 4.96362305 3.88647461 C1.27776376 4.25191695 -0.73534178 5.39579239 -3.07641602 8.23852539 C-3.48891602 8.85727539 -3.90141602 9.47602539 -4.32641602 10.11352539 C-4.35330818 8.63445647 -4.37276223 7.15525056 -4.38891602 5.67602539 C-4.40051758 4.85231445 -4.41211914 4.02860352 -4.42407227 3.17993164 C-4.25929356 -0.30678583 -3.59120249 0.12256214 0 0 Z " fill="#C6B057" transform="translate(674.326416015625,725.886474609375)"/>
<path d="M0 0 C11.55 0 23.1 0 35 0 C33.56462918 3.58842706 32.46176659 6.05455174 30.38623047 9.14770508 C29.86584198 9.92813675 29.34545349 10.70856842 28.80929565 11.51264954 C28.25089996 12.3399205 27.69250427 13.16719147 27.1171875 14.01953125 C26.54292023 14.87810226 25.96865295 15.73667328 25.37698364 16.6212616 C23.5473124 19.35460073 21.71125827 22.0835828 19.875 24.8125 C18.63108666 26.66833583 17.38759218 28.52445248 16.14453125 30.38085938 C13.10120139 34.92383896 10.05262391 39.46326101 7 44 C10.77076889 44.05799124 14.54142334 44.09359306 18.3125 44.125 C19.9202832 44.15013672 19.9202832 44.15013672 21.56054688 44.17578125 C23.10258789 44.18544922 23.10258789 44.18544922 24.67578125 44.1953125 C26.0975769 44.21102295 26.0975769 44.21102295 27.5480957 44.22705078 C30.25689249 44.17223875 30.25689249 44.17223875 33 42 C34.19232613 39.94996045 34.19232613 39.94996045 35 38 C35.33 38 35.66 38 36 38 C36.17700355 42.60209225 36.10814567 44.78370866 34 49 C22.12 49 10.24 49 -2 49 C-2.33 48.34 -2.66 47.68 -3 47 C-2.30608154 45.98184204 -2.30608154 45.98184204 -1.59814453 44.94311523 C6.99292287 32.3339896 15.57474688 19.72084169 24 7 C24.66 6.01 25.32 5.02 26 4 C22.75007554 3.94180576 19.50028565 3.90633884 16.25 3.875 C15.32960938 3.85824219 14.40921875 3.84148438 13.4609375 3.82421875 C12.57148438 3.81777344 11.68203125 3.81132813 10.765625 3.8046875 C9.94868164 3.79421387 9.13173828 3.78374023 8.29003906 3.77294922 C5.67731347 4.03199344 4.19468435 4.56239668 2 6 C1.01 7.32 0.02 8.64 -1 10 C-0.67 6.7 -0.34 3.4 0 0 Z " fill="#C5AF55" transform="translate(352,726)"/>
<path d="M0 0 C9.57 0 19.14 0 29 0 C29 1.98 29 3.96 29 6 C28.34 6.66 27.68 7.32 27 8 C26.67 7.01 26.34 6.02 26 5 C23.29816945 3.64908472 20.88191794 3.66141942 17.875 3.4375 C15.93625 3.293125 13.9975 3.14875 12 3 C12 8.94 12 14.88 12 21 C17.28 20.67 22.56 20.34 28 20 C27.67 22.97 27.34 25.94 27 29 C26.63261719 28.35546875 26.26523437 27.7109375 25.88671875 27.046875 C23.30357082 24.24445365 21.55737589 24.41106993 17.8125 24.25 C16.72582031 24.19328125 15.63914062 24.1365625 14.51953125 24.078125 C13.27236328 24.03945313 13.27236328 24.03945313 12 24 C12.13820269 27.3128652 12.28683778 30.62517989 12.4375 33.9375 C12.47681641 34.88302734 12.51613281 35.82855469 12.55664062 36.80273438 C12.61948242 38.15141602 12.61948242 38.15141602 12.68359375 39.52734375 C12.72025146 40.35999756 12.75690918 41.19265137 12.79467773 42.05053711 C12.79367103 44.00338858 12.79367103 44.00338858 14 45 C15.95169561 45.2039085 17.91363424 45.3138543 19.875 45.375 C20.94492187 45.42398438 22.01484375 45.47296875 23.1171875 45.5234375 C26.22518971 45.30912288 26.22518971 45.30912288 27.7578125 42.4765625 C28.16773438 41.65929687 28.57765625 40.84203125 29 40 C29.66 40 30.32 40 31 40 C30.125 47.875 30.125 47.875 29 49 C26.92737924 49.08767112 24.85179706 49.10695873 22.77734375 49.09765625 C21.51728516 49.09443359 20.25722656 49.09121094 18.95898438 49.08789062 C17.61848891 49.07953403 16.27799412 49.07106907 14.9375 49.0625 C13.59310058 49.0574866 12.2486994 49.05292342 10.90429688 49.04882812 C7.60282059 49.03699488 4.30143197 49.02050971 1 49 C1 48.34 1 47.68 1 47 C2.485 46.505 2.485 46.505 4 46 C4 31.48 4 16.96 4 2 C2.68 1.34 1.36 0.68 0 0 Z " fill="#C6B058" transform="translate(762,726)"/>
<path d="M0 0 C0.66 0 1.32 0 2 0 C2.08636719 0.93199219 2.17273438 1.86398438 2.26171875 2.82421875 C3.67590473 15.65568607 7.3255684 25.750508 14.484375 36.59765625 C18.9055402 43.60543098 19.08150254 51.95999276 18 60 C16.18857873 64.97177328 13.69504094 69.46311567 11 74 C9.64145173 76.33079799 8.28920881 78.66523024 6.9375 81 C6.60274658 81.57387451 6.26799316 82.14774902 5.9230957 82.73901367 C0.79830064 91.65273305 -2.95605422 101.19173026 -6 111 C-6.33 111 -6.66 111 -7 111 C-8.19868007 99.67913268 -3.94568469 89.80566858 1.00390625 79.88671875 C7.93899675 65.92588297 13.29508339 54.69029552 9.23828125 39.06640625 C8.32091535 36.58526049 7.23586722 34.3370566 6 32 C5.09414768 30.06716395 4.19851058 28.12951155 3.3125 26.1875 C2.89613281 25.31480469 2.47976563 24.44210937 2.05078125 23.54296875 C-0.11554008 18.30031007 -0.12765442 13.29579175 -0.0625 7.6875 C-0.05798828 6.94693359 -0.05347656 6.20636719 -0.04882812 5.44335938 C-0.03712175 3.62887101 -0.01918898 1.81442466 0 0 Z " fill="#C7B159" transform="translate(621,252)"/>
<path d="M0 0 C13.53 0 27.06 0 41 0 C41 2.97 41 5.94 41 9 C39.68 7.68 38.36 6.36 37 5 C32.71 4.67 28.42 4.34 24 4 C24.33 18.19 24.66 32.38 25 47 C26.65 47.33 28.3 47.66 30 48 C30 48.66 30 49.32 30 50 C24.39 50 18.78 50 13 50 C13 49.34 13 48.68 13 48 C14.485 47.505 14.485 47.505 16 47 C16.33 32.81 16.66 18.62 17 4 C3.71370636 3.41305293 3.71370636 3.41305293 -1 9 C-0.67 6.03 -0.34 3.06 0 0 Z " fill="#C7B159" transform="translate(713,725)"/>
<path d="M0 0 C9.33333333 0 9.33333333 0 14 4 C16.7418218 8.40381652 16.68436845 12.96500354 16 18 C14.20353146 20.93423195 13.0558929 22.47205355 10 24 C6.32670036 24.13357453 3.50147041 24.1671568 0 23 C0 15.41 0 7.82 0 0 Z " fill="#FDFCF9" transform="translate(630,728)"/>
<path d="M0 0 C4.61389696 2.01857992 8.4137325 4.6095399 11 9 C12.1770794 16.32731925 11.55210212 22.72510818 7.51171875 28.98828125 C5.14373124 32.1394791 2.66183771 35.09054948 0 38 C-0.33 37.34 -0.66 36.68 -1 36 C-0.40680306 34.72417945 0.25166134 33.47850561 0.9375 32.25 C3.80929804 26.10754307 3.89215744 19.65501225 3 13 C1.31751455 9.48787293 0.27812367 8.18541578 -3 6 C-11.7027246 5.28348065 -18.62665957 8.79217745 -26 13 C-26 12.34 -26 11.68 -26 11 C-23.8046875 9.16015625 -23.8046875 9.16015625 -20.875 7.0625 C-19.92367187 6.37285156 -18.97234375 5.68320313 -17.9921875 4.97265625 C-11.97473683 1.00553799 -7.21520409 -1.31628723 0 0 Z " fill="#C6B057" transform="translate(631,218)"/>
<path d="M0 0 C3.28489696 1.64244848 4.75373205 2.58488935 6.5 5.75 C5.65695312 5.59015625 4.81390625 5.4303125 3.9453125 5.265625 C0.38334959 4.73254211 -3.02461993 4.54665719 -6.625 4.5 C-8.42324219 4.46132812 -8.42324219 4.46132812 -10.2578125 4.421875 C-13.74270217 4.77456263 -15.1333943 5.19913303 -17.5 7.75 C-18.70914245 16.21399715 -15.73968253 24.17499164 -10.83203125 31.10546875 C-10.17267578 31.91951172 -10.17267578 31.91951172 -9.5 32.75 C-9.83 33.41 -10.16 34.07 -10.5 34.75 C-17.28661402 28.7059942 -25.35701878 19.95182392 -26 10.5 C-25.98582623 7.57075483 -25.84689075 6.20012097 -24.04296875 3.859375 C-17.13281461 -2.13427449 -8.64465369 -2.95105061 0 0 Z " fill="#C5AE54" transform="translate(522.5,222.25)"/>
<path d="M0 0 C0.495 0.99 0.495 0.99 1 2 C0.109375 4.05859375 0.109375 4.05859375 -1.25 6.4375 C-1.68828125 7.21996094 -2.1265625 8.00242187 -2.578125 8.80859375 C-3.93173151 10.894784 -5.03100804 12.48314694 -7 14 C-8.97265625 14.22265625 -8.97265625 14.22265625 -11.0625 14.0625 C-12.361875 14.041875 -13.66125 14.02125 -15 14 C-15.66 14.66 -16.32 15.32 -17 16 C-19.09923959 15.89503802 -21.06206933 15.4881338 -23.125 15.09375 C-23.74375 15.0628125 -24.3625 15.031875 -25 15 C-25.66 15.66 -26.32 16.32 -27 17 C-29.5 16.8125 -29.5 16.8125 -32 16 C-32.66 15.01 -33.32 14.02 -34 13 C-36.59678151 13.43279692 -38.69185241 13.82666698 -41 15.125 C-43.84386108 16.36918922 -45.11146449 16.12723337 -48 15 C-50.84932236 12.01815102 -53.67821199 8.96536404 -55 5 C-54.625 2.75 -54.625 2.75 -54 1 C-50 7.75 -50 7.75 -50 10 C-44.10288188 11.35713336 -44.10288188 11.35713336 -38.75 9 C-37.8425 8.34 -36.935 7.68 -36 7 C-32.99737662 7.1766249 -30.63539209 8.58818281 -28 10 C-27.34 9.01 -26.68 8.02 -26 7 C-24.68 7 -23.36 7 -22 7 C-21.505 8.485 -21.505 8.485 -21 10 C-19.7625 9.814375 -18.525 9.62875 -17.25 9.4375 C-13.27994819 8.90119476 -13.27994819 8.90119476 -10.875 9.75 C-8.64321199 10.26183459 -8.64321199 10.26183459 -5.9375 7.875 C-3.3556214 5.54150466 -1.60000468 3.11112022 0 0 Z " fill="#C6AF56" transform="translate(602,385)"/>
<path d="M0 0 C5.09119798 0.69425427 8.98482906 2.52917557 12.3515625 6.45703125 C12.0215625 7.11703125 11.6915625 7.77703125 11.3515625 8.45703125 C10.083125 7.71453125 10.083125 7.71453125 8.7890625 6.95703125 C4.65950669 5.15504326 2.78768862 4.46272712 -1.6484375 5.45703125 C-4.69840446 8.52913953 -7.1403645 11.93996337 -9.6484375 15.45703125 C-11.6484375 17.45703125 -11.6484375 17.45703125 -15.5234375 17.70703125 C-18.81318784 17.63602944 -20.74308612 17.00655198 -23.6484375 15.45703125 C-28.51168421 14.92841748 -31.43773231 16.050914 -35.6484375 18.45703125 C-36.0403125 17.52890625 -36.4321875 16.60078125 -36.8359375 15.64453125 C-38.81941856 12.15634043 -40.10772678 11.18420721 -43.6484375 9.45703125 C-44.793125 8.86921875 -44.793125 8.86921875 -45.9609375 8.26953125 C-46.79625 7.86734375 -46.79625 7.86734375 -47.6484375 7.45703125 C-43.28149638 6.91116361 -41.08806262 7.62987912 -37.5859375 10.08203125 C-35.60230063 11.48294854 -35.60230063 11.48294854 -33.6484375 12.45703125 C-30.98177083 11.87369792 -30.98177083 11.87369792 -28.6484375 10.45703125 C-24.52473495 10.12713505 -23.15506235 10.11928135 -19.6484375 12.45703125 C-17.25122685 13.12478766 -17.25122685 13.12478766 -14.6484375 12.45703125 C-12.16706965 9.99762241 -10.06309555 7.47624106 -7.9296875 4.72265625 C-5.32622904 1.5985061 -4.10214628 0.51386629 0 0 Z " fill="#0E7257" transform="translate(582.6484375,222.54296875)"/>
<path d="M0 0 C3.97915159 -0.02886984 7.95827653 -0.04675406 11.9375 -0.0625 C13.07380859 -0.07087891 14.21011719 -0.07925781 15.38085938 -0.08789062 C16.46044922 -0.09111328 17.54003906 -0.09433594 18.65234375 -0.09765625 C20.15269165 -0.10551147 20.15269165 -0.10551147 21.68334961 -0.11352539 C24 0 24 0 25 1 C25.5457292 5.50028858 24.20079584 7.7690247 21.6875 11.4375 C19.16416939 15.21738796 16.89558236 18.87432075 15 23 C13.58312881 18.74938644 14.80679961 16.28148375 16 12 C15.39929688 11.7421875 14.79859375 11.484375 14.1796875 11.21875 C11.81020238 9.8938766 10.74082933 8.65443911 9.125 6.5 C6.43711518 3.20185562 4.2456064 1.9097728 0 1 C0 0.67 0 0.34 0 0 Z " fill="#19785E" transform="translate(534,268)"/>
<path d="M0 0 C2.97 0 5.94 0 9 0 C8.41992188 0.42796875 7.83984375 0.8559375 7.2421875 1.296875 C5.14327226 2.89117299 3.12367371 4.53226437 1.125 6.25 C0.16980469 7.06210937 0.16980469 7.06210937 -0.8046875 7.890625 C-3.7665744 10.73656615 -6.37070759 13.84836803 -9 17 C-6.32940158 19.78755236 -3.63576686 22.55174226 -0.9375 25.3125 C-0.18533203 26.09818359 0.56683594 26.88386719 1.34179688 27.69335938 C5.65204106 32.07823982 9.12160665 35.08737534 15 37 C15 37.33 15 37.66 15 38 C10.26102819 38.81671642 6.52847763 38.98847655 2.390625 36.3125 C-0.21411752 33.9827924 -2.61567494 31.55435796 -5 29 C-5.80566406 28.19949219 -6.61132812 27.39898437 -7.44140625 26.57421875 C-13.00640234 20.81565758 -13.00640234 20.81565758 -12.98046875 17.51171875 C-11.74958999 14.35851142 -10.12421704 12.83120673 -7.625 10.5625 C-4.08985132 7.20157963 -1.74592962 4.53941701 0 0 Z " fill="#14755B" transform="translate(590,436)"/>
<path d="M0 0 C6.6328125 -0.2421875 6.6328125 -0.2421875 9.9375 1.9375 C12.71284225 6.05846273 12.7927931 9.17116932 12 14 C11 16.5625 11 16.5625 9 18 C6.2008884 18.38220801 3.85688039 18.23039358 1 18 C0 17 0 17 -0.09765625 13.18359375 C-0.09098089 11.60153318 -0.07901875 10.01948841 -0.0625 8.4375 C-0.05798828 7.63119141 -0.05347656 6.82488281 -0.04882812 5.99414062 C-0.03700518 3.99606244 -0.01906914 1.99802217 0 0 Z " fill="#F3F5F0" transform="translate(548,438)"/>
<path d="M0 0 C0.89589844 0.00322266 1.79179688 0.00644531 2.71484375 0.00976562 C4.12056641 0.02233398 4.12056641 0.02233398 5.5546875 0.03515625 C6.49957031 0.03966797 7.44445312 0.04417969 8.41796875 0.04882812 C10.75527137 0.06063268 13.09244811 0.07709866 15.4296875 0.09765625 C13.4296875 2.09765625 13.4296875 2.09765625 10.4296875 3.09765625 C9.9553125 4.06703125 9.4809375 5.03640625 8.9921875 6.03515625 C7.4296875 9.09765625 7.4296875 9.09765625 3.4296875 11.09765625 C3.7596875 14.06765625 4.0896875 17.03765625 4.4296875 20.09765625 C1.715258 16.84034085 -0.82504647 13.46171832 -3.3203125 10.03515625 C-3.93390625 9.19855469 -4.5475 8.36195313 -5.1796875 7.5 C-6.5703125 5.09765625 -6.5703125 5.09765625 -6.5703125 1.09765625 C-4.16971433 -0.10264283 -2.67670601 -0.01694118 0 0 Z " fill="#1B7960" transform="translate(593.5703125,268.90234375)"/>
<path d="M0 0 C0.66 0 1.32 0 2 0 C3.00353516 1.22589844 3.00353516 1.22589844 4.02734375 2.4765625 C8.18477896 6.00573878 11.29465444 5.60769996 16.5625 5.375 C17.41263672 5.36082031 18.26277344 5.34664063 19.13867188 5.33203125 C26.28069784 5.34054205 26.28069784 5.34054205 32.25 1.9375 C32.8275 1.298125 33.405 0.65875 34 0 C34.05399736 1.45792884 34.09279177 2.91642712 34.125 4.375 C34.14820313 5.18710937 34.17140625 5.99921875 34.1953125 6.8359375 C34 9 34 9 32 11 C31.67 10.34 31.34 9.68 31 9 C30.360625 9.144375 29.72125 9.28875 29.0625 9.4375 C26.47710274 9.91236888 23.91980122 10.30119001 21.3125 10.625 C20.16201172 10.76808594 20.16201172 10.76808594 18.98828125 10.9140625 C17 11 17 11 15 10 C13.33654418 9.87917466 11.66779409 9.8246206 10 9.8125 C9.113125 9.79832031 8.22625 9.78414063 7.3125 9.76953125 C4.80480016 9.77286874 4.80480016 9.77286874 3 12 C2.49440092 10.56445975 1.9957251 9.1264798 1.5 7.6875 C1.2215625 6.88699219 0.943125 6.08648437 0.65625 5.26171875 C0 3 0 3 0 0 Z " fill="#15765C" transform="translate(556,366)"/>
<path d="M0 0 C0.66 0 1.32 0 2 0 C3.98 5.94 5.96 11.88 8 18 C3.71 18 -0.58 18 -5 18 C-4.25251405 13.51508429 -3.39620905 9.85996177 -1.9375 5.625 C-1.57527344 4.56539062 -1.21304688 3.50578125 -0.83984375 2.4140625 C-0.56269531 1.61742187 -0.28554688 0.82078125 0 0 Z " fill="#FAF8F1" transform="translate(586,736)"/>
<path d="M0 0 C3.09308516 2.55245996 3.98199617 5.2310685 5.1875 9 C5.53167969 10.051875 5.87585938 11.10375 6.23046875 12.1875 C7 15 7 15 7 18 C2.71 18 -1.58 18 -6 18 C-4.37727326 11.74091114 -2.73384207 5.85823301 0 0 Z " fill="#FAF8F1" transform="translate(412,736)"/>
<path d="M0 0 C2.79945989 2.5123358 3.82582017 4.12910087 4.5625 7.8125 C3.77909989 12.2517673 1.58215466 15.36653952 -1 19 C-1.66 18.34 -2.32 17.68 -3 17 C-2.67 16.34 -2.34 15.68 -2 15 C-1.49553855 10.7162126 -1.23066104 7.1835984 -3.625 3.5 C-6.43595366 1.72466085 -8.71097835 1.29900197 -12 1 C-12 0.67 -12 0.34 -12 0 C-7.72312288 -1.16642103 -4.30168844 -1.09497524 0 0 Z " fill="#19785F" transform="translate(561,437)"/>
<path d="M0 0 C0.66 0 1.32 0 2 0 C2.7425 0.78375 3.485 1.5675 4.25 2.375 C7.14826662 5.14152723 9.169531 6.02011258 13 7 C9.93882432 9.62386487 9.26826873 10 5 10 C4.34 10.66 3.68 11.32 3 12 C2.49440092 10.56445975 1.9957251 9.1264798 1.5 7.6875 C1.2215625 6.88699219 0.943125 6.08648437 0.65625 5.26171875 C0 3 0 3 0 0 Z " fill="#13755B" transform="translate(556,366)"/>
<path d="M0 0 C2.8203125 -0.29296875 2.8203125 -0.29296875 6.125 -0.1875 C7.76855469 -0.14689453 7.76855469 -0.14689453 9.4453125 -0.10546875 C10.28835938 -0.07066406 11.13140625 -0.03585937 12 0 C12.33 0.99 12.66 1.98 13 3 C8.45699761 5.72580143 4.89047526 4.63313152 0.01171875 3.5078125 C-0.65214844 3.34023438 -1.31601562 3.17265625 -2 3 C-1.34 2.01 -0.68 1.02 0 0 Z " fill="#2E856E" transform="translate(568,372)"/>
<path d="M0 0 C5.26386487 -0.65798311 7.92096166 0.88405129 12.0703125 3.80859375 C14.05739661 5.03543718 15.72021535 5.55924163 18 6 C18 6.66 18 7.32 18 8 C16.02 8.99 14.04 9.98 12 11 C11.608125 10.071875 11.21625 9.14375 10.8125 8.1875 C8.82901894 4.69930918 7.54071072 3.72717596 4 2 C3.236875 1.608125 2.47375 1.21625 1.6875 0.8125 C1.130625 0.544375 0.57375 0.27625 0 0 Z " fill="#107358" transform="translate(535,230)"/>
<path d="M0 0 C0.33 0.66 0.66 1.32 1 2 C0.109375 4.05859375 0.109375 4.05859375 -1.25 6.4375 C-1.68828125 7.21996094 -2.1265625 8.00242187 -2.578125 8.80859375 C-3.92069156 10.87776914 -5.05820862 12.48033718 -7 14 C-10.1875 13.6875 -10.1875 13.6875 -13 13 C-12.46375 12.608125 -11.9275 12.21625 -11.375 11.8125 C-4.7190594 6.77725049 -4.7190594 6.77725049 0 0 Z " fill="#CBB767" transform="translate(602,385)"/>
<path d="M0 0 C0.33 0 0.66 0 1 0 C1.0582253 3.08325358 1.09367134 6.16636505 1.125 9.25 C1.14175781 10.12269531 1.15851562 10.99539062 1.17578125 11.89453125 C1.18222656 12.73886719 1.18867187 13.58320313 1.1953125 14.453125 C1.20578613 15.22817383 1.21625977 16.00322266 1.22705078 16.80175781 C0.97326556 19.25883539 0.22444152 20.87311542 -1 23 C-1.66 22.67 -2.32 22.34 -3 22 C-2.01 14.74 -1.02 7.48 0 0 Z " fill="#CAB563" transform="translate(527,239)"/>
<path d="M0 0 C1.2065625 0.0309375 1.2065625 0.0309375 2.4375 0.0625 C2.81968767 1.71864657 3.15145102 3.38707024 3.4375 5.0625 C2.4375 6.0625 2.4375 6.0625 -0.125 6.125 C-1.3315625 6.0940625 -1.3315625 6.0940625 -2.5625 6.0625 C-2.94468767 4.40635343 -3.27645102 2.73792976 -3.5625 1.0625 C-2.5625 0.0625 -2.5625 0.0625 0 0 Z " fill="#C7B158" transform="translate(580.5625,713.9375)"/>
<path d="M0 0 C2.625 0.375 2.625 0.375 5 1 C4.67 2.65 4.34 4.3 4 6 C2.35 6 0.7 6 -1 6 C-1.625 4.125 -1.625 4.125 -2 2 C-1.34 1.34 -0.68 0.68 0 0 Z " fill="#C4AD52" transform="translate(594,714)"/>
<path d="M0 0 C0.33 0 0.66 0 1 0 C2.70159453 15.92938497 2.70159453 15.92938497 -1 22 C-2.25205243 19.49589513 -1.95815898 18.19935991 -1.66015625 15.4296875 C-1.56669922 14.53378906 -1.47324219 13.63789063 -1.37695312 12.71484375 C-1.27318359 11.77769531 -1.16941406 10.84054687 -1.0625 9.875 C-0.96259766 8.93011719 -0.86269531 7.98523438 -0.75976562 7.01171875 C-0.51181085 4.67385945 -0.25833685 2.3367311 0 0 Z " fill="#53957A" transform="translate(465,364)"/>
<path d="M0 0 C-1.44781793 3.44428265 -3.27694609 5.36130962 -6.125 7.75 C-7.21167969 8.67039062 -7.21167969 8.67039062 -8.3203125 9.609375 C-8.87460937 10.06828125 -9.42890625 10.5271875 -10 11 C-10.66 10.67 -11.32 10.34 -12 10 C-10.38113585 8.32737283 -8.7547271 6.66204463 -7.125 5 C-6.22007812 4.071875 -5.31515625 3.14375 -4.3828125 2.1875 C-2 0 -2 0 0 0 Z " fill="#318670" transform="translate(591,518)"/>
<path d="M0 0 C5.445 1.485 5.445 1.485 11 3 C11 3.33 11 3.66 11 4 C7.7 3.67 4.4 3.34 1 3 C0.67 2.01 0.34 1.02 0 0 Z " fill="#227D62" transform="translate(628,197)"/>
<path d="M0 0 C4.67461851 -0.32613618 7.16674383 0.29417212 11 3 C10.34 3.66 9.68 4.32 9 5 C8.2575 4.54625 7.515 4.0925 6.75 3.625 C4.53069422 2.31359204 2.32032178 1.11719197 0 0 Z " fill="#288168" transform="translate(535,230)"/>
</svg>
